<?xml version="1.0" encoding="utf-8" ?>
<svg xmlns="http://www.w3.org/2000/svg" xmlns:xlink="http://www.w3.org/1999/xlink" width="480" height="599">
	<path fill="#F8CA7F" d="M136.62 114.911C136.767 114.523 136.942 114.156 137.168 113.807C138.922 111.1 142.951 110.365 145.844 109.707C145.668 110.603 145.497 110.994 144.865 111.658C141.525 112.121 139.42 112.919 136.95 115.277L136.62 114.911Z"/>
	<path fill="#FEFEFE" d="M109.29 244.958L109.729 244.925C110.245 245.992 110.742 247.068 111.333 248.095L112.703 251.052C110.537 258.109 118.088 280.558 121.69 287.313C123.051 289.865 125.135 293.451 127.802 294.795C129.011 297.315 130.995 299.035 133.36 300.432C132.905 301.126 132.461 301.614 131.839 302.163C131.144 302.385 130.686 302.46 129.969 302.26C125.968 301.143 122.121 294.447 120.065 290.963C113.599 280.009 110.601 267.302 109.332 254.742C109.033 251.775 108.55 247.842 109.29 244.958Z"/>
	<path fill="#E7D6C3" d="M112.703 251.052C114.442 253.631 116.549 256.096 118.187 258.7C118.892 259.567 119.626 260.706 120.542 261.344C121.077 265.609 123.404 269.399 124.896 273.367C126.787 278.4 128.119 289.286 127.802 294.795C125.135 293.451 123.051 289.865 121.69 287.313C118.088 280.558 110.537 258.109 112.703 251.052Z"/>
	<path fill="#C15920" d="M370.045 512.63C370.144 512.076 370.215 511.519 370.287 510.961C370.87 510.255 371.381 509.842 372.244 509.507C375.647 508.185 379.376 507.455 382.849 506.263C394.585 502.235 406.775 497.656 417.747 491.854C422.831 489.165 426.694 486.275 430.464 481.897C431.595 480.585 432.907 478.221 434.287 477.357C434.416 477.276 434.55 477.203 434.681 477.126C434.574 483.204 432.926 488.33 428.412 492.656C418.926 501.748 383.295 515.142 369.636 519.808L368.682 519.621C370.004 517.892 369.965 514.677 370.045 512.63Z"/>
	<path fill="#E4DFDB" d="M429.566 328.655C431.512 336.391 432.493 344.452 433.268 352.376C435.691 377.158 434.856 402.163 428.431 426.331C427.164 431.1 425.783 436.628 423.546 441.038C422.17 438.413 421.235 435.373 420.186 432.589C418.045 426.909 415.851 421.199 414.142 415.372C414.215 415.304 414.288 415.237 414.361 415.169C417.841 411.859 419.092 405.971 420.465 401.492C423.691 390.969 426.313 380.475 427.63 369.524C429.258 355.994 429.071 342.261 429.566 328.655Z"/>
	<path fill="#FEFEFE" d="M408.344 380.931C411.284 374.993 412.906 368.711 414.662 362.354C417.684 351.41 420.368 340.179 422.113 328.95C422.835 324.302 422.983 319.509 423.838 314.898C423.95 314.297 423.943 313.66 424.46 313.308C424.528 313.343 424.602 313.369 424.664 313.413C426.978 315.067 429.054 325.52 429.566 328.655C429.071 342.261 429.258 355.994 427.63 369.524C426.313 380.475 423.691 390.969 420.465 401.492C419.092 405.971 417.841 411.859 414.361 415.169C414.288 415.237 414.215 415.304 414.142 415.372C413.523 413.823 413.027 412.2 412.481 410.623C412.024 409.492 411.668 408.362 411.328 407.193Q410.523 404.407 409.585 401.663C411.435 399.938 413.035 397.894 414.795 396.069C415.742 389.432 408.967 386.271 408.344 380.931Z"/>
	<path fill="#07556F" d="M414.795 396.069C414.602 400.014 413.792 404.018 411.328 407.193Q410.523 404.407 409.585 401.663C411.435 399.938 413.035 397.894 414.795 396.069Z"/>
	<path fill="#FEFEFE" d="M345.612 477.619C355.928 482.398 363.897 490.187 367.8 500.987C368.697 503.468 369.49 506.168 369.558 508.825C369.728 509.943 369.703 511.605 370.045 512.63C369.965 514.677 370.004 517.892 368.682 519.621C365.469 522.539 353.923 523.526 349.124 525.907C341.617 529.632 336.909 537.165 329.08 540.43C324.422 542.372 318.823 543.064 313.81 542.822C310.696 542.672 304.395 542.191 302.032 539.793C301.798 539.556 301.646 539.342 301.504 539.047C300.543 538.996 300.008 538.66 299.199 538.161C298.966 538.456 298.699 538.669 298.415 538.912C293.397 539.993 287.3 538.889 282.596 536.979C279.897 535.883 276.047 533.958 274.851 531.125C274.283 530.999 273.782 530.297 273.365 529.884L272.515 528.772C272.051 528.791 271.791 528.757 271.366 528.54C269.437 527.555 267.353 525.517 266.623 523.469C266.155 522.893 266.143 522.164 266.041 521.454C265.832 521.307 265.479 520.94 265.348 520.698C265.048 520.143 265.127 519.758 265.278 519.188C265.435 518.596 265.497 518.123 265.494 517.51C265.493 517.439 265.491 517.368 265.49 517.296C265.919 516.244 265.79 514.374 265.844 513.202C266.565 511.749 267.313 510.332 267.754 508.763C268.543 508.131 268.842 507.114 269.074 506.175C270.847 505.104 272.599 501.938 274.065 500.352C278.402 495.66 284.481 493.911 290.145 491.497C295.77 493.944 337.151 480.375 345.612 477.619Z"/>
	<path fill="#E4DFDB" d="M270.097 522.48C270.173 522.491 270.247 522.511 270.323 522.515C272.758 522.624 273.259 519.886 274.81 518.685L275.069 518.952C275.029 519.442 275.063 519.638 275.302 520.069L275.939 519.941C274.779 522.843 273.607 525.586 272.922 528.657L273.088 528.357L273.045 528.9L272.694 528.737L272.515 528.772C272.051 528.791 271.791 528.757 271.366 528.54C269.437 527.555 267.353 525.517 266.623 523.469C266.155 522.893 266.143 522.164 266.041 521.454C267.338 522.432 268.504 522.684 270.097 522.48Z"/>
	<path fill="#A69B9A" d="M299.199 538.161C299.175 537.945 299.16 537.904 299.198 537.657C299.405 536.319 300.206 534.724 300.669 533.414C303.466 525.484 307.48 518.249 314.1 512.861C318.428 509.338 324.852 505.754 330.66 506.373L330.7 506.947L331.268 506.87L331.112 507.45C329.094 507.021 327.256 507.265 325.276 507.747C319.169 509.234 313.146 513.869 310.048 519.328C308.43 522.178 307.344 525.345 305.619 528.129C304.58 531.653 303.04 535 301.851 538.468C301.742 538.786 301.76 538.695 301.504 539.047C300.543 538.996 300.008 538.66 299.199 538.161Z"/>
	<path fill="#A69B9A" d="M275.939 519.941C276.028 519.864 276.118 519.788 276.205 519.709C278.208 517.893 279.56 514.597 281.358 512.439C287.449 505.125 298.342 498.693 308.087 498.837C309.413 498.857 310.727 498.893 312.014 499.235L312.223 499.512C310.541 499.991 306.494 499.414 303.782 499.932C292.33 502.12 284.444 510.442 278.972 520.254C277.83 522.301 274.122 528.857 274.735 530.824C274.767 530.927 274.812 531.025 274.851 531.125C274.283 530.999 273.782 530.297 273.365 529.884L272.515 528.772L272.694 528.737L273.045 528.9L273.088 528.357L272.922 528.657C273.607 525.586 274.779 522.843 275.939 519.941Z"/>
	<path fill="#E4DFDB" d="M369.558 508.825C369.728 509.943 369.703 511.605 370.045 512.63C369.965 514.677 370.004 517.892 368.682 519.621C365.469 522.539 353.923 523.526 349.124 525.907C341.617 529.632 336.909 537.165 329.08 540.43C324.422 542.372 318.823 543.064 313.81 542.822C310.696 542.672 304.395 542.191 302.032 539.793C301.798 539.556 301.646 539.342 301.504 539.047C301.76 538.695 301.742 538.786 301.851 538.468C303.04 535 304.58 531.653 305.619 528.129C305.629 528.182 305.634 528.237 305.65 528.289C305.697 528.433 305.755 528.572 305.807 528.714C305.868 528.882 305.922 529.052 305.989 529.217C306.037 529.334 306.104 529.444 306.141 529.565C306.662 531.278 305.386 534.972 304.543 536.476C305.154 536.903 305.777 537.008 306.508 537.103C310.058 537.562 314.107 536.897 317.681 536.562C330.725 535.339 334.024 531.552 342.38 522.424C344.088 520.559 345.964 518.499 348.25 517.335C353.907 514.455 364.602 513.537 369.447 509.841L369.558 508.825Z"/>
	<path fill="#DF702F" d="M409.585 401.663Q410.523 404.407 411.328 407.193C411.668 408.362 412.024 409.492 412.481 410.623C413.027 412.2 413.523 413.823 414.142 415.372C415.851 421.199 418.045 426.909 420.186 432.589C421.235 435.373 422.17 438.413 423.546 441.038C426.497 449.538 435.519 468.964 434.681 477.126C434.55 477.203 434.416 477.276 434.287 477.357C432.907 478.221 431.595 480.585 430.464 481.897C426.694 486.275 422.831 489.165 417.747 491.854C406.775 497.656 394.585 502.235 382.849 506.263C379.376 507.455 375.647 508.185 372.244 509.507C371.381 509.842 370.87 510.255 370.287 510.961C370.215 511.519 370.144 512.076 370.045 512.63C369.703 511.605 369.728 509.943 369.558 508.825C369.49 506.168 368.697 503.468 367.8 500.987C363.897 490.187 355.928 482.398 345.612 477.619C347.584 476.541 349.91 476.018 352.065 475.418C357.648 473.861 363.818 472.293 368.513 468.766L368.953 468.282L369.334 468.114C370.622 466.06 369.961 454.727 370.094 451.668C374.969 436.729 386.758 425.243 397.306 414.089C401.276 409.891 405.165 405.382 409.585 401.663Z"/>
	<path fill="#C15920" d="M409.585 401.663Q410.523 404.407 411.328 407.193C411.668 408.362 412.024 409.492 412.481 410.623C410.347 411.548 408.521 413.307 406.754 414.791C398.162 422.006 388.287 432.003 384.088 442.595C382.89 445.615 381.601 449.558 383.076 452.691C383.999 454.653 385.66 455.72 387.653 456.39C392.015 457.858 397.692 458.088 402.294 458.467C396.005 459.242 390.041 460.149 383.977 462.057C380.232 463.236 372.435 468.023 369.334 468.114C370.622 466.06 369.961 454.727 370.094 451.668C374.969 436.729 386.758 425.243 397.306 414.089C401.276 409.891 405.165 405.382 409.585 401.663Z"/>
	<path fill="#F8CA7F" d="M239.507 69.1654C248.101 68.1102 257.597 67.3822 266.045 69.7614L272.112 70.7115C273.06 70.989 274.037 71.2314 274.961 71.5804C278.25 72.4606 282.033 73.7373 285.034 75.3704C301.675 82.2893 314.45 93.9006 321.396 110.787C323.576 116.088 323.623 121.728 325.545 126.32C328.785 127.468 332.723 129.56 335.574 131.494C336.959 132.586 337.085 134.55 337.446 136.2C338.516 138.025 339.782 139.701 341.038 141.399C337.54 143.031 333.696 145.056 329.737 144.821C327.252 141.216 325.102 138.739 321.39 136.316Q317.919 135.93 314.436 135.682C319.867 146.244 323.21 155.705 323.616 167.683C318.544 165.154 313.849 161.95 308.68 159.556C306.601 158.881 304.227 157.624 302.65 156.107C297.906 153.29 292.972 150.886 288.042 148.414C286.984 147.599 285.723 146.927 284.583 146.223C282.026 144.638 278.31 144.17 275.388 143.698C267.912 141.845 255.764 142.725 247.903 143.131C244.906 143.286 241.9 143.151 238.903 143.306C230.649 143.733 222.091 144.76 214.002 146.423C209.37 147.376 203.156 150.583 198.823 150.818C193.466 152.637 188.174 153.28 182.531 153.217C175.381 152.664 164.955 144.989 156.834 142.794C158.884 140.565 160.883 138.288 162.901 136.03L161.903 135.979C161.621 135.966 161.339 135.956 161.057 135.938C153.5 135.462 145.386 129.716 140.61 124.166C138.4 121.598 136.339 118.435 136.62 114.911L136.95 115.277C139.42 112.919 141.525 112.121 144.865 111.658C145.497 110.994 145.668 110.603 145.844 109.707C147.597 109.276 149.308 108.871 151.105 108.673L153.065 108.266C163.531 106.368 174.376 105.528 184.562 102.241C186.403 100.044 187.988 97.6131 189.793 95.3784C195.351 88.5012 202.008 82.6185 209.92 78.606L210.923 78.0033C214.161 76.2827 217.346 74.663 220.885 73.6291C226.356 70.7399 233.382 69.6406 239.507 69.1654Z"/>
	<path fill="#EDAB4D" d="M145.844 109.707C147.597 109.276 149.308 108.871 151.105 108.673C152.611 109.732 154.019 109.647 155.771 109.621C156.617 109.561 157.463 109.412 158.304 109.293C161.275 109.328 164.882 108.989 167.764 109.56C166.85 109.609 165.936 109.669 165.021 109.706C163.122 109.783 161.155 110.342 159.295 110.734L159.106 111.225L159.109 110.795L158.966 111.209C159.679 111.289 161.185 111.032 161.562 111.502L161.485 111.757C157.43 111.578 153.351 111.604 149.291 111.548L145.288 111.581L144.865 111.658C145.497 110.994 145.668 110.603 145.844 109.707Z"/>
	<path fill="#FECB41" d="M145.844 109.707C147.597 109.276 149.308 108.871 151.105 108.673C152.611 109.732 154.019 109.647 155.771 109.621L155.415 109.919C151.7 109.724 148.857 110.888 145.288 111.581L144.865 111.658C145.497 110.994 145.668 110.603 145.844 109.707Z"/>
	<path fill="#EDAB4D" d="M214.24 78.3865L215.874 78.0969C212.375 82.9396 201.978 95.8033 202.183 101.574C197.473 101.289 192.612 102.121 187.932 102.594C191.189 99.7625 193.672 95.83 196.512 92.5728C200.155 88.3942 204.458 84.8207 208.771 81.3633C210.526 80.146 212.247 79.1628 214.24 78.3865Z"/>
	<path fill="#E24B4B" d="M220.885 73.6291C226.356 70.7399 233.382 69.6406 239.507 69.1654C238.491 70.2168 237.558 71.2871 236.232 71.9493C228.228 78.0761 222.659 85.9375 218.781 95.198C217.735 97.6946 217.099 100.423 215.944 102.853C213.973 102.767 211.906 102.291 209.95 101.992C208.85 101.998 207.772 101.893 206.678 101.791Q204.428 101.727 202.183 101.574C201.978 95.8033 212.375 82.9396 215.874 78.0969C217.034 77.0648 218.286 76.1459 219.521 75.2081C220.093 74.7048 220.493 74.2841 220.885 73.6291Z"/>
	<path fill="#CD2E32" d="M219.521 75.2081L221.52 74.3647L221.487 74.5208L222.261 74.0627C221.978 75.2061 219.915 76.8243 219.052 77.7346C217.014 79.8847 215.204 82.2896 213.565 84.7567Q212.3 86.6931 211.228 88.7432Q210.157 90.7933 209.29 92.9378Q208.423 95.0823 207.768 97.3008Q207.114 99.5194 206.678 101.791Q204.428 101.727 202.183 101.574C201.978 95.8033 212.375 82.9396 215.874 78.0969C217.034 77.0648 218.286 76.1459 219.521 75.2081Z"/>
	<path fill="#CD2E32" d="M209.95 101.992C209.9 100.085 210.366 98.2332 210.943 96.4266C214.164 86.345 224.54 76.2912 233.966 71.9374C234.987 71.4659 235.232 71.5869 236.232 71.9493C228.228 78.0761 222.659 85.9375 218.781 95.198C217.735 97.6946 217.099 100.423 215.944 102.853C213.973 102.767 211.906 102.291 209.95 101.992Z"/>
	<path fill="#EDAB4D" d="M239.507 69.1654C248.101 68.1102 257.597 67.3822 266.045 69.7614C262.539 71.4139 258.807 73.0828 255.555 75.1889C246.88 80.8078 239.939 90.0894 236.399 99.7595C235.703 101.66 235.246 103.629 234.788 105.597C228.487 104.508 222.333 103.344 215.944 102.853C217.099 100.423 217.735 97.6946 218.781 95.198C222.659 85.9375 228.228 78.0761 236.232 71.9493C237.558 71.2871 238.491 70.2168 239.507 69.1654Z"/>
	<path fill="#CD2E32" d="M266.045 69.7614L272.112 70.7115C273.06 70.989 274.037 71.2314 274.961 71.5804C278.25 72.4606 282.033 73.7373 285.034 75.3704C284.855 75.6901 284.65 75.9674 284.593 76.3328C281.954 77.7125 278.492 78.1322 275.651 79.2688Q274.743 79.6995 273.857 80.1738Q272.971 80.6481 272.11 81.1649Q271.248 81.6818 270.412 82.2399Q269.577 82.7981 268.769 83.3963Q267.962 83.9944 267.185 84.6311Q266.407 85.2679 265.662 85.9416Q264.916 86.6154 264.205 87.3247Q263.493 88.0339 262.816 88.777Q262.14 89.52 261.501 90.2951Q260.861 91.0702 260.26 91.8754Q259.659 92.6807 259.098 93.5142Q258.537 94.3477 258.018 95.2076Q257.498 96.0674 257.02 96.9515Q256.543 97.8357 256.109 98.7419Q255.676 99.6482 255.287 100.575Q254.898 101.501 254.554 102.445C253.803 104.531 253.498 106.755 252.648 108.808L252.016 109.099C248.497 108.092 244.801 107.477 241.212 106.751L238.27 106.301C237.127 105.885 235.987 105.751 234.788 105.597C235.246 103.629 235.703 101.66 236.399 99.7595C239.939 90.0894 246.88 80.8078 255.555 75.1889C258.807 73.0828 262.539 71.4139 266.045 69.7614Z"/>
	<path fill="#E24B4B" d="M266.045 69.7614L272.112 70.7115C273.06 70.989 274.037 71.2314 274.961 71.5804L273.139 74.06C269.926 75.1601 266.281 75.8984 263.225 77.3137C255.099 81.0773 247.589 89.7028 243.739 97.6746C242.479 100.283 241.017 103.809 241.212 106.751L238.27 106.301C237.127 105.885 235.987 105.751 234.788 105.597C235.246 103.629 235.703 101.66 236.399 99.7595C239.939 90.0894 246.88 80.8078 255.555 75.1889C258.807 73.0828 262.539 71.4139 266.045 69.7614Z"/>
	<path fill="#CD2E32" d="M266.045 69.7614L272.112 70.7115C272.053 70.7548 271.996 70.8001 271.937 70.8416C269.502 72.532 263.298 72.987 260.043 74.3513C251.148 78.0802 240.535 94.7651 238.47 104.191C238.318 104.885 238.281 105.593 238.27 106.301C237.127 105.885 235.987 105.751 234.788 105.597C235.246 103.629 235.703 101.66 236.399 99.7595C239.939 90.0894 246.88 80.8078 255.555 75.1889C258.807 73.0828 262.539 71.4139 266.045 69.7614Z"/>
	<path fill="#F29719" d="M251.999 109.232C255.252 110.101 286.821 117.096 287.249 116.863C289.929 117.485 292.66 118.109 295.387 118.478L295.837 118.147C296.343 118.909 296.727 118.975 297.565 119.255C301.073 120.429 304.858 120.966 308.439 121.927C313.555 123.299 318.622 125.11 323.808 126.173C324.419 126.299 324.922 126.359 325.545 126.32C328.785 127.468 332.723 129.56 335.574 131.494C336.959 132.586 337.085 134.55 337.446 136.2C338.516 138.025 339.782 139.701 341.038 141.399C337.54 143.031 333.696 145.056 329.737 144.821C327.252 141.216 325.102 138.739 321.39 136.316Q317.919 135.93 314.436 135.682C312.327 135.3 310.122 134.441 307.99 133.965Q296.992 131.523 285.945 129.308C283.259 127.959 277.904 127.59 274.773 127.038C261.419 124.681 248.19 122.623 234.722 121.046C229.846 120.475 224.439 119.42 219.552 119.847C217.654 119.116 215.297 118.944 213.278 118.591C209.104 117.862 204.999 117.161 200.952 115.873C197.865 114.934 194.396 114.946 191.196 114.548C181.235 113.309 171.5 112.347 161.485 111.757L161.562 111.502C161.185 111.032 159.679 111.289 158.966 111.209L159.109 110.795L159.106 111.225L159.295 110.734C161.155 110.342 163.122 109.783 165.021 109.706C165.936 109.669 166.85 109.609 167.764 109.56C176.642 110.076 185.513 110.84 194.406 111.186C212.797 111.902 231.121 112.077 249.489 113.469C250.422 112.1 251.217 110.692 251.999 109.232Z"/>
	<path fill="#905132" d="M321.39 136.316C322.73 136.131 324.135 136.369 325.492 136.338C329.359 136.247 333.629 135.655 337.446 136.2C338.516 138.025 339.782 139.701 341.038 141.399C337.54 143.031 333.696 145.056 329.737 144.821C327.252 141.216 325.102 138.739 321.39 136.316Z"/>
	<path fill="#FECB41" d="M251.999 109.232C255.252 110.101 286.821 117.096 287.249 116.863C289.929 117.485 292.66 118.109 295.387 118.478L295.837 118.147C296.343 118.909 296.727 118.975 297.565 119.255C301.073 120.429 304.858 120.966 308.439 121.927C313.555 123.299 318.622 125.11 323.808 126.173C324.419 126.299 324.922 126.359 325.545 126.32C328.785 127.468 332.723 129.56 335.574 131.494C335.527 131.555 335.488 131.624 335.431 131.677C334.469 132.578 328.55 129.713 327.115 129.148C313.17 123.665 297.669 120.794 282.948 118.1C277.038 117.019 271.096 115.817 265.139 115.033C259.942 114.349 254.7 114.036 249.489 113.469C250.422 112.1 251.217 110.692 251.999 109.232Z"/>
	<path fill="#F29719" d="M285.034 75.3704C301.675 82.2893 314.45 93.9006 321.396 110.787C323.576 116.088 323.623 121.728 325.545 126.32C324.922 126.359 324.419 126.299 323.808 126.173C318.622 125.11 313.555 123.299 308.439 121.927C304.858 120.966 301.073 120.429 297.565 119.255C296.727 118.975 296.343 118.909 295.837 118.147L295.387 118.478C292.66 118.109 289.929 117.485 287.249 116.863C286.821 117.096 255.252 110.101 251.999 109.232L252.016 109.099L252.648 108.808C253.498 106.755 253.803 104.531 254.554 102.445Q254.898 101.501 255.287 100.575Q255.676 99.6482 256.109 98.7419Q256.543 97.8357 257.02 96.9515Q257.498 96.0674 258.018 95.2076Q258.537 94.3477 259.098 93.5142Q259.659 92.6807 260.26 91.8754Q260.861 91.0702 261.501 90.2951Q262.14 89.52 262.816 88.777Q263.493 88.0339 264.205 87.3247Q264.916 86.6154 265.662 85.9416Q266.407 85.2679 267.185 84.6311Q267.962 83.9944 268.769 83.3963Q269.577 82.7981 270.412 82.2399Q271.248 81.6818 272.11 81.1649Q272.971 80.6481 273.857 80.1738Q274.743 79.6995 275.651 79.2688C278.492 78.1322 281.954 77.7125 284.593 76.3328C284.65 75.9674 284.855 75.6901 285.034 75.3704Z"/>
	<path fill="#FECB41" d="M285.177 77.2853C287.206 78.1934 289.014 79.5721 290.897 80.7461C298.909 85.7431 305.356 90.4555 310.756 98.3795C311.703 99.7704 313 101.422 313.625 102.966C313.746 103.265 313.785 103.542 313.823 103.861L313.558 104.045C311.515 101.529 309.673 98.8877 307.495 96.4769C303.598 92.164 291.538 81.0221 286.186 79.809C286.063 79.7811 285.934 79.7877 285.808 79.777C285.406 79.0476 285.325 78.1032 285.177 77.2853Z"/>
	<path fill="#F8CA7F" d="M284.593 76.3328C284.824 76.6443 285.085 76.9033 285.177 77.2853C285.325 78.1032 285.406 79.0476 285.808 79.777C289.881 89.0077 293.541 98.3203 295.026 108.362C295.507 111.611 295.43 114.9 295.837 118.147L295.387 118.478C292.66 118.109 289.929 117.485 287.249 116.863C286.565 107.235 284.766 97.9356 280.645 89.1135C279.202 86.0232 276.429 82.5169 275.651 79.2688C278.492 78.1322 281.954 77.7125 284.593 76.3328Z"/>
	<path fill="#F29719" d="M252.016 109.099L252.648 108.808C253.498 106.755 253.803 104.531 254.554 102.445Q254.898 101.501 255.287 100.575Q255.676 99.6482 256.109 98.7419Q256.543 97.8357 257.02 96.9515Q257.498 96.0674 258.018 95.2076Q258.537 94.3477 259.098 93.5142Q259.659 92.6807 260.26 91.8754Q260.861 91.0702 261.501 90.2951Q262.14 89.52 262.816 88.777Q263.493 88.0339 264.205 87.3247Q264.916 86.6154 265.662 85.9416Q266.407 85.2679 267.185 84.6311Q267.962 83.9944 268.769 83.3963Q269.577 82.7981 270.412 82.2399Q271.248 81.6818 272.11 81.1649Q272.971 80.6481 273.857 80.1738Q274.743 79.6995 275.651 79.2688C276.429 82.5169 279.202 86.0232 280.645 89.1135C284.766 97.9356 286.565 107.235 287.249 116.863C286.821 117.096 255.252 110.101 251.999 109.232L252.016 109.099Z"/>
	<path fill="#DF702F" d="M149.291 111.548C153.351 111.604 157.43 111.578 161.485 111.757C171.5 112.347 181.235 113.309 191.196 114.548C194.396 114.946 197.865 114.934 200.952 115.873C204.999 117.161 209.104 117.862 213.278 118.591C215.297 118.944 217.654 119.116 219.552 119.847C218.901 120.736 218.256 121.583 217.495 122.385L217.103 122.593C207.753 132.534 203.985 138.442 198.823 150.818C193.466 152.637 188.174 153.28 182.531 153.217C175.381 152.664 164.955 144.989 156.834 142.794C158.884 140.565 160.883 138.288 162.901 136.03L161.903 135.979C161.621 135.966 161.339 135.956 161.057 135.938C153.5 135.462 145.386 129.716 140.61 124.166C138.4 121.598 136.339 118.435 136.62 114.911L136.95 115.277C139.42 112.919 141.525 112.121 144.865 111.658L145.288 111.581L149.291 111.548Z"/>
	<path fill="#AB1A1A" d="M163.489 136.119C166.731 131.857 170.974 127.417 175.482 124.498C181.604 120.534 192.485 115.401 199.8 116.946C198.424 118.434 196.896 119.829 195.584 121.363L194.864 121.904C188.071 122.064 169.941 132.405 163.489 136.119Z"/>
	<path fill="#FEFEFE" d="M200.952 115.873C204.999 117.161 209.104 117.862 213.278 118.591C215.297 118.944 217.654 119.116 219.552 119.847C218.901 120.736 218.256 121.583 217.495 122.385L217.103 122.593C207.753 132.534 203.985 138.442 198.823 150.818C193.466 152.637 188.174 153.28 182.531 153.217C183.392 150.419 183.584 147.299 184.356 144.427C186.575 136.185 190.421 129.109 194.864 121.904L195.584 121.363C196.896 119.829 198.424 118.434 199.8 116.946C200.11 116.558 200.582 116.211 200.952 115.873Z"/>
	<path fill="#A69B9A" d="M200.952 115.873C204.999 117.161 209.104 117.862 213.278 118.591C215.297 118.944 217.654 119.116 219.552 119.847C218.901 120.736 218.256 121.583 217.495 122.385L217.103 122.593C212.336 120.941 201.324 121.896 195.584 121.363C196.896 119.829 198.424 118.434 199.8 116.946C200.11 116.558 200.582 116.211 200.952 115.873Z"/>
	<path fill="#DF702F" d="M219.552 119.847C224.439 119.42 229.846 120.475 234.722 121.046C248.19 122.623 261.419 124.681 274.773 127.038C277.904 127.59 283.259 127.959 285.945 129.308Q296.991 131.523 307.99 133.965C310.122 134.441 312.327 135.3 314.436 135.682C319.867 146.244 323.21 155.705 323.616 167.683C318.544 165.154 313.849 161.95 308.68 159.556C306.601 158.881 304.227 157.624 302.65 156.107C297.906 153.29 292.972 150.886 288.042 148.414C286.984 147.599 285.723 146.927 284.583 146.223C282.026 144.638 278.31 144.17 275.388 143.698C267.912 141.845 255.764 142.725 247.903 143.131C244.906 143.286 241.9 143.151 238.903 143.306C230.649 143.733 222.091 144.76 214.002 146.423C209.37 147.376 203.156 150.583 198.823 150.818C203.985 138.442 207.753 132.534 217.103 122.593L217.495 122.385C218.256 121.583 218.901 120.736 219.552 119.847Z"/>
	<path fill="#C15920" d="M219.552 119.847C224.439 119.42 229.846 120.475 234.722 121.046C248.19 122.623 261.419 124.681 274.773 127.038C277.904 127.59 283.259 127.959 285.945 129.308L285.504 129.753C286.492 132.078 291.365 135.41 293.27 137.441C295.552 139.872 297.766 142.464 299.829 145.083C301.863 147.665 303.814 150.463 305.371 153.359C306.433 155.336 307.275 157.82 308.68 159.556C306.601 158.881 304.227 157.624 302.65 156.107C302.685 155.092 302.12 154.209 301.643 153.342C299.719 149.841 296.848 146.717 294.218 143.733C290.359 139.355 285.655 134.928 280.506 132.11C267.978 125.254 248.145 124.884 234.075 123.915C228.913 123.56 222.628 123.985 217.721 122.46C217.645 122.436 217.57 122.41 217.495 122.385C218.256 121.583 218.901 120.736 219.552 119.847Z"/>
	<path fill="#4B372B" d="M285.945 129.308Q296.991 131.523 307.99 133.965C310.122 134.441 312.327 135.3 314.436 135.682C319.867 146.244 323.21 155.705 323.616 167.683C318.544 165.154 313.849 161.95 308.68 159.556C307.275 157.82 306.433 155.336 305.371 153.359C303.814 150.463 301.863 147.665 299.829 145.083C297.766 142.464 295.552 139.872 293.27 137.441C291.365 135.41 286.492 132.078 285.504 129.753L285.945 129.308Z"/>
	<path fill="#936B51" d="M314.436 135.682Q317.919 135.93 321.39 136.316C325.102 138.739 327.252 141.216 329.737 144.821C333.696 145.056 337.54 143.031 341.038 141.399C343.814 145.298 346.982 148.809 350.038 152.482C354.639 158.014 359.226 163.636 363.681 169.286C369.755 176.99 375.25 185.128 381.195 192.92C384.65 197.449 388.707 201.435 392.317 205.825C395.066 209.167 397.344 212.853 400.068 216.205C403.357 219.222 406.654 223.605 407.372 228.132C409.83 240.114 403.173 251.954 396.763 261.642C385.255 279.036 370.99 294.321 351.679 302.827C345.601 304.788 339.279 307.289 332.783 307.084L327.987 307.047C321.449 305.601 317.75 306.717 311.589 302.483C303.333 296.81 297.433 286.807 296.343 276.855C295.978 273.519 296.428 269.706 295.764 266.487C295.736 266.349 295.704 266.212 295.673 266.074C296.52 252.869 299.844 241.118 304.854 228.895C306.789 224.175 309.082 219.531 310.705 214.693L310.781 214.459C312.117 210.739 313.902 207.138 315.339 203.447C317.809 197.103 319.876 190.378 321.524 183.771L321.965 182.804C322.463 178.047 324.685 172.445 323.616 167.683C323.21 155.705 319.867 146.244 314.436 135.682Z"/>
	<path fill="#905132" d="M347.187 165.435C354.003 168.961 359.922 185.163 362.282 192.194C366.028 203.351 365.597 211.029 360.404 221.516C359.999 222.237 359.592 223.018 359.033 223.634C358.505 224.215 357.982 224.466 357.189 224.445C355.386 224.398 353.201 222.311 352.142 220.939C344.886 211.539 346.48 191.217 346.771 179.804C346.892 175.078 346.623 170.124 347.187 165.435Z"/>
	<path fill="#EDAB4D" d="M314.436 135.682Q317.919 135.93 321.39 136.316C325.102 138.739 327.252 141.216 329.737 144.821C336.168 164.849 330.092 188.936 323.926 208.328C316.813 230.704 301.685 255.283 307.458 279.595C309.043 286.27 312.665 291.957 318.884 295.129C326.976 299.256 337.192 298.109 345.529 295.353C366.728 288.345 386.308 268.281 396.102 248.623C399.868 241.066 402.474 232.243 401.338 223.772C401.053 221.647 399.728 218.183 400.068 216.205C403.357 219.222 406.654 223.605 407.372 228.132C409.83 240.114 403.173 251.954 396.763 261.642C385.255 279.036 370.99 294.321 351.679 302.827C345.601 304.788 339.279 307.289 332.783 307.084L327.987 307.047C321.449 305.601 317.75 306.717 311.589 302.483C303.333 296.81 297.433 286.807 296.343 276.855C295.978 273.519 296.428 269.706 295.764 266.487C295.736 266.349 295.704 266.212 295.673 266.074C296.52 252.869 299.844 241.118 304.854 228.895C306.789 224.175 309.082 219.531 310.705 214.693L310.781 214.459C312.117 210.739 313.902 207.138 315.339 203.447C317.809 197.103 319.876 190.378 321.524 183.771L321.965 182.804C322.463 178.047 324.685 172.445 323.616 167.683C323.21 155.705 319.867 146.244 314.436 135.682Z"/>
	<path fill="#F29719" d="M407.372 228.132C409.83 240.114 403.173 251.954 396.763 261.642C385.255 279.036 370.99 294.321 351.679 302.827C345.601 304.788 339.279 307.289 332.783 307.084C332.587 306.797 332.626 306.701 332.606 306.364C334.246 304.835 339.479 304.618 341.771 304.023Q344.747 303.249 347.602 302.107C358.104 297.844 368.371 291.142 376.341 283.083C389.235 270.043 403.753 250.904 406.637 232.46C406.877 230.923 407.381 229.728 407.372 228.132Z"/>
	<path fill="#07556F" d="M46.0707 396.73C48.4125 394.336 50.1899 393.594 53.5278 393.551C60.9272 393.456 68.5836 395.521 75.8851 396.615L119.662 402.899C127.167 403.97 134.738 405.591 142.313 406.021C146.456 406.515 150.519 407.301 154.691 407.562C159.103 408.994 163.37 409.439 167.955 409.863L171.033 410.193L171.242 410.246C182.13 412.914 197.927 409.836 204.639 420.873C206.51 423.95 206.885 427.706 208.643 430.715C209.455 434.001 210.75 437.269 211.834 440.48Q214.967 449.613 217.902 458.811Q219.245 462.625 220.468 466.479Q221.957 472.823 224.675 478.746C224.514 481.341 228.82 496.81 230.44 498.605C230.501 498.672 230.576 498.725 230.644 498.785C234.726 500.939 254.595 503.352 260.669 504.339C263.406 504.784 266.564 504.987 269.074 506.175C268.842 507.114 268.543 508.131 267.754 508.763C267.313 510.332 266.565 511.749 265.844 513.202C265.79 514.374 265.919 516.244 265.49 517.296C265.491 517.368 265.493 517.439 265.494 517.51C265.497 518.123 265.435 518.596 265.278 519.188C265.127 519.758 265.048 520.143 265.348 520.698C265.479 520.94 265.832 521.307 266.041 521.454C266.143 522.164 266.155 522.893 266.623 523.469C267.353 525.517 269.437 527.555 271.366 528.54C271.791 528.757 272.051 528.791 272.515 528.772L273.365 529.884C273.011 530.376 272.769 530.619 272.215 530.891C266.476 533.712 259.742 535.587 253.701 537.737C249.581 539.203 244.383 541.625 240.123 542.327C239.687 542.399 239.294 542.354 238.859 542.289C238.297 543.209 237.044 543.962 236.039 544.305C233.761 545.081 231.116 544.882 228.773 544.569C220.719 543.494 212.698 541.736 204.714 540.229L162.747 532.327Q143.511 528.867 124.319 525.175C117.038 523.838 100.51 521.737 94.8117 518.873C91.0456 516.98 87.5215 512.392 85.6107 508.723C81.9403 501.674 79.7342 493.622 76.9968 486.16C73.0626 475.437 68.8516 464.807 64.8631 454.101L52.0622 420.283C50.1065 415.189 47.6733 410.127 46.0481 404.931C45.2202 402.283 44.7507 399.298 46.0707 396.73Z"/>
	<path fill="#2B5E7C" d="M135.352 459.868C135.676 460.468 135.725 460.833 136.42 461.062C137.743 461.498 139.745 460.552 140.956 460.012C141.005 461.135 140.906 462.526 141.269 463.595C139.112 463.438 136.986 462.993 134.816 462.826C135.456 461.932 135.336 460.924 135.352 459.868Z"/>
	<path fill="#FEFEFE" d="M126.788 454.949C128.494 454.921 129.966 455.199 131.232 456.432C132.767 457.926 133.083 459.983 133.091 462.017C132.433 462.049 131.744 462.102 131.088 462.025C129.852 461.879 128.463 461.018 127.732 460.02C126.531 458.379 126.56 456.856 126.788 454.949Z"/>
	<path fill="#FEFEFE" d="M135.352 459.868C134.617 457.509 133.846 455.02 135.196 452.688C135.598 451.992 136.145 451.52 136.959 451.39C137.824 451.251 138.779 451.889 139.365 452.451C140.615 453.65 141.339 455.597 141.304 457.312C141.286 458.194 141.152 459.156 140.956 460.012C139.745 460.552 137.743 461.498 136.42 461.062C135.725 460.833 135.676 460.468 135.352 459.868Z"/>
	<path fill="#FEFEFE" d="M145.79 456.354C146.756 456.544 147.742 456.931 148.522 457.54C149.961 458.662 150.825 460.214 150.933 462.038C151.054 464.062 150.216 464.988 148.936 466.379C147.304 466.176 146.108 465.364 144.728 464.529C143.927 463.16 143.3 461.719 143.457 460.095C143.621 458.401 144.534 457.401 145.79 456.354Z"/>
	<path fill="#FEFEFE" d="M134.816 462.826C136.986 462.993 139.112 463.438 141.269 463.595Q142.254 464.085 143.206 464.635Q144.158 465.185 145.074 465.794Q145.99 466.403 146.867 467.068Q147.743 467.733 148.575 468.452Q149.408 469.17 150.194 469.939Q150.981 470.708 151.717 471.525Q152.453 472.342 153.137 473.203Q153.821 474.065 154.45 474.967C154.48 475.288 154.503 475.607 154.527 475.929C154.674 477.876 154.247 479.875 152.935 481.398C152.208 482.242 151.075 483.104 149.947 483.203C149.183 483.539 148.669 483.566 147.837 483.455C145.953 483.205 143.468 482.125 142.29 480.581C142.008 480.898 141.722 481.2 141.396 481.473C140.459 482.255 139.368 482.616 138.153 482.481C135.543 482.19 133.157 479.774 131.596 477.812C129.137 474.722 127.886 471.882 128.337 467.901C130.176 465.459 132.078 464.146 134.816 462.826Z"/>
	<path fill="#0E2E4B" d="M46.0707 396.73C48.4125 394.336 50.1899 393.594 53.5278 393.551C60.9272 393.456 68.5836 395.521 75.8851 396.615L119.662 402.899C127.167 403.97 134.738 405.591 142.313 406.021C146.456 406.515 150.519 407.301 154.691 407.562C159.103 408.994 163.37 409.439 167.955 409.863L171.033 410.193L171.242 410.246C182.13 412.914 197.927 409.836 204.639 420.873C206.51 423.95 206.885 427.706 208.643 430.715C209.455 434.001 210.75 437.269 211.834 440.48Q214.967 449.613 217.902 458.811Q219.245 462.625 220.468 466.479Q221.957 472.823 224.675 478.746C224.514 481.341 228.82 496.81 230.44 498.605C230.501 498.672 230.576 498.725 230.644 498.785C234.726 500.939 254.595 503.352 260.669 504.339C263.406 504.784 266.564 504.987 269.074 506.175C268.842 507.114 268.543 508.131 267.754 508.763C267.313 510.332 266.565 511.749 265.844 513.202C265.79 514.374 265.919 516.244 265.49 517.296C265.491 517.368 265.493 517.439 265.494 517.51C265.497 518.123 265.435 518.596 265.278 519.188C265.127 519.758 265.048 520.143 265.348 520.698C265.479 520.94 265.832 521.307 266.041 521.454C266.143 522.164 266.155 522.893 266.623 523.469C267.353 525.517 269.437 527.555 271.366 528.54C271.791 528.757 272.051 528.791 272.515 528.772L273.365 529.884C273.011 530.376 272.769 530.619 272.215 530.891C266.476 533.712 259.742 535.587 253.701 537.737C249.581 539.203 244.383 541.625 240.123 542.327C239.687 542.399 239.294 542.354 238.859 542.289C237.897 542.04 237.796 538.941 237.645 538.02C236.683 532.172 234.498 526.462 232.749 520.814L225.717 497.723Q219.296 476.979 212.656 456.303C209.88 447.502 207.276 438.598 204.162 429.913C203.198 427.224 202.098 423.787 200.391 421.493C198.603 419.09 196.029 417.84 193.215 417.06C186.648 415.239 179.677 414.517 172.933 413.634Q160.553 412.043 148.191 410.321L90.9078 402.118C81.9199 400.808 72.9397 399.239 63.93 398.105C58.0852 397.369 52.1908 397.459 46.3868 396.769L46.0707 396.73Z"/>
	<path fill="#2B5E7C" d="M241.157 518.988C240.958 519.249 240.943 519.3 240.643 519.523C239.662 520.255 237.955 520.339 236.805 520.116L236.69 519.715C237.934 518.556 239.55 518.145 241.126 517.604L241.157 518.988Z"/>
	<path fill="#2B5E7C" d="M239.886 522.581C241.877 523.223 245.917 523.234 247.939 522.683L248.275 523.486L247.97 523.818C247.585 523.797 247.15 523.815 246.775 523.734C246.04 523.991 245.298 524.008 244.527 524.019C242.725 524.046 241.211 523.876 239.886 522.581Z"/>
	<path fill="#2B5E7C" d="M245.886 525.559C245.59 525.703 245.306 525.849 244.981 525.919C242.968 526.358 240.494 525.722 238.858 524.564L238.814 524.148L239.761 524.026C240.053 524.263 240.044 524.268 240.403 524.495C241.516 525.196 242.681 524.985 243.878 524.651C243.96 524.628 244.042 524.603 244.124 524.579C244.741 524.802 245.351 525.032 245.957 525.283L245.886 525.559Z"/>
	<path fill="#07556F" d="M250.578 515.327L250.486 516.32C250.897 516.271 251.298 516.23 251.703 516.144C250.432 517.502 243.95 519.109 241.909 519.119C241.537 519.121 241.468 519.081 241.157 518.988L241.126 517.604C241.376 517.696 241.369 517.705 241.68 517.75C243.816 518.053 248.825 516.631 250.578 515.327Z"/>
	<path fill="#07556F" d="M250.578 515.327C251.355 515.062 252.375 514.144 253.146 513.696C254.361 512.991 255.631 512.504 256.95 512.032L257.263 512.964C256.349 514.311 254.17 515.688 252.59 516.127C252.278 516.214 252.018 516.179 251.703 516.144C251.298 516.23 250.897 516.271 250.486 516.32L250.578 515.327Z"/>
	<path fill="#2B5E7C" d="M253.462 510.322C256.273 509.953 259.377 509.075 261.937 507.887L262.93 508.548L262.875 508.907C261.25 510.496 257.772 511.3 255.531 511.141C255.093 511.11 254.74 511.018 254.319 510.896C253.968 510.936 253.722 510.696 253.42 510.527L253.462 510.322Z"/>
	<path fill="#07556F" d="M250.498 521.959C252.884 522.396 258.013 521.046 260.233 519.901L260.362 520.321C260.519 520.817 260.735 521.211 260.999 521.658L260.957 522.08C260.387 522.33 260.279 522.354 259.662 522.289C258.893 521.747 253.234 523.291 251.481 522.884C250.818 522.73 250.847 522.543 250.498 521.959Z"/>
	<path fill="#2B5E7C" d="M247.938 508.224C249.354 508.697 255.36 507.234 257.013 506.789L257.241 507.562C256.327 508.52 254.884 509.261 253.53 509.295C253.432 509.298 253.335 509.285 253.237 509.28C252.492 509.817 251.436 509.827 250.544 509.879C249.226 509.955 247.733 510.085 246.696 509.154L247.938 508.224Z"/>
	<path fill="#07556F" d="M239.708 529.627C239.247 529.01 238.866 528.042 238.937 527.276C240.796 525.694 244.148 527.501 246.433 526.372L246.681 527.647C246.52 527.834 246.39 528.045 246.165 528.152C244.881 529.326 241.829 529.969 240.09 529.718C239.96 529.699 239.835 529.657 239.708 529.627Z"/>
	<path fill="#2B5E7C" d="M266.142 508.498C266.895 508.895 266.89 508.996 267.754 508.763C267.313 510.332 266.565 511.749 265.844 513.202L265.69 512.927L265.564 512.35C263.203 511.533 260.09 513.814 257.263 512.964L256.95 512.032C257.247 512.098 257.507 512.113 257.811 512.086C260.181 511.877 264.61 510.285 266.142 508.498Z"/>
	<path fill="#07556F" d="M235.842 512.346C237.577 512.941 240.499 511.339 242.343 511.112C246.165 510.641 248.925 511.365 253.42 510.527C253.722 510.696 253.968 510.936 254.319 510.896C253.29 512.1 251.648 512.667 250.101 512.798C247.455 513.021 244.697 511.812 242.137 512.114C239.952 512.371 236.444 514.802 234.467 513.872L234.511 513.334C234.947 513.019 235.456 512.716 235.842 512.346Z"/>
	<path fill="#1C4C71" d="M234.964 511.685L234.351 511.649C235.161 510.332 242.958 507.203 244.598 506.688C246.256 506.167 247.979 506.041 249.612 505.431C249.692 505.401 249.771 505.369 249.851 505.338C249.528 505.828 249.254 506.27 248.737 506.572C248.145 506.919 247.648 507.347 247.124 507.787L247.196 508.193L247.938 508.224L246.696 509.154C245.382 509.993 236.747 511.825 234.964 511.685Z"/>
	<path fill="#1C4C71" d="M250.498 521.959C250.847 522.543 250.818 522.73 251.481 522.884C253.234 523.291 258.893 521.747 259.662 522.289C258.796 523.133 258.363 523.203 257.186 523.293C256.688 523.331 256.301 523.314 255.962 523.742C255.674 524.108 255.456 524.601 255.241 525.016C253.494 526.146 248.123 528.51 246.165 528.152C246.39 528.045 246.52 527.834 246.681 527.647L246.433 526.372L245.886 525.559L245.957 525.283C245.351 525.032 244.741 524.802 244.124 524.579C244.591 524.732 245.235 524.895 245.718 524.786C246.439 524.624 246.442 524.341 246.775 523.734C247.15 523.815 247.585 523.797 247.97 523.818L248.275 523.486L247.939 522.683C248.972 522.734 249.611 522.459 250.498 521.959Z"/>
	<path fill="#07556F" d="M265.69 512.927L265.844 513.202C265.79 514.374 265.919 516.244 265.49 517.296C265.364 517.387 265.236 517.474 265.113 517.567C263.995 518.409 264.082 520.047 262.232 519.819C261.898 519.778 261.735 519.7 261.438 519.588L261.92 519.53L261.638 519.326C258.091 519.839 254.693 520.838 251.174 521.331C248.036 521.77 244.858 521.552 241.751 521.987C240.391 522.177 238.993 522.729 237.646 523.051L237.321 522.849C239.655 519.687 253.089 517.639 257.31 516.214C259.091 515.613 260.58 514.346 262.328 513.708C263.297 513.354 264.447 513.626 265.352 513.129C265.467 513.066 265.577 512.994 265.69 512.927Z"/>
	<path fill="#5B5D6C" d="M261.438 519.588C261.735 519.7 261.898 519.778 262.232 519.819C264.082 520.047 263.995 518.409 265.113 517.567C265.236 517.474 265.364 517.387 265.49 517.296C265.491 517.368 265.493 517.439 265.494 517.51C265.497 518.123 265.435 518.596 265.278 519.188C265.127 519.758 265.048 520.143 265.348 520.698C265.479 520.94 265.832 521.307 266.041 521.454C266.143 522.164 266.155 522.893 266.623 523.469C259.894 526.767 252.926 529.211 245.828 531.575C244.151 532.134 242.219 533.045 240.513 533.327C240.163 532.103 239.783 530.906 239.708 529.627C239.835 529.657 239.96 529.699 240.09 529.718C241.829 529.969 244.881 529.326 246.165 528.152C248.123 528.51 253.494 526.146 255.241 525.016C255.456 524.601 255.674 524.108 255.962 523.742C256.301 523.314 256.688 523.331 257.186 523.293C258.363 523.203 258.796 523.133 259.662 522.289C260.279 522.354 260.387 522.33 260.957 522.08L260.999 521.658C260.735 521.211 260.519 520.817 260.362 520.321L260.233 519.901C260.681 519.865 261.011 519.732 261.438 519.588Z"/>
	<path fill="#1C4C71" d="M230.644 498.785C234.726 500.939 254.595 503.352 260.669 504.339C263.406 504.784 266.564 504.987 269.074 506.175C268.842 507.114 268.543 508.131 267.754 508.763C266.89 508.996 266.895 508.895 266.142 508.498C265.194 508.671 263.806 509.15 262.875 508.907L262.93 508.548L261.937 507.887C262.231 507.875 262.063 507.909 262.421 507.709C261.034 506.885 258.813 508.05 257.241 507.562L257.013 506.789L257.544 506.81L257.458 506.549C255.088 505.96 252.61 505.887 250.199 505.509C245.395 504.755 240.645 503.766 235.821 503.079C234.321 502.865 232.407 503.143 231.067 502.65C230.675 501.372 230.586 500.113 230.644 498.785Z"/>
	<path fill="#CD2E32" d="M108.696 141.973C112.883 140.613 117.386 139.894 121.749 139.372C133.378 137.981 142.723 138.629 154.045 141.776C154.987 142.087 155.934 142.374 156.834 142.794C164.955 144.989 175.381 152.664 182.531 153.217C188.174 153.28 193.466 152.637 198.823 150.818C203.156 150.583 209.37 147.376 214.002 146.423C222.091 144.76 230.649 143.733 238.903 143.306C241.9 143.151 244.906 143.286 247.903 143.131C255.764 142.725 267.912 141.845 275.388 143.698C278.31 144.17 282.026 144.638 284.583 146.223C285.723 146.927 286.984 147.599 288.042 148.414C292.972 150.886 297.906 153.29 302.65 156.107C304.227 157.624 306.601 158.881 308.68 159.556C313.849 161.95 318.544 165.154 323.616 167.683C324.685 172.445 322.463 178.047 321.965 182.804L321.524 183.771C319.876 190.378 317.809 197.103 315.339 203.447C313.902 207.138 312.117 210.739 310.781 214.459L310.705 214.693C309.082 219.531 306.789 224.175 304.854 228.895C299.844 241.118 296.52 252.869 295.673 266.074C283.212 274.827 277.075 279.083 261.225 278.983C258.53 278.966 255.505 279.245 252.855 278.869C252.537 278.824 252.336 278.746 252.074 278.567C252.024 278.61 251.974 278.653 251.925 278.697C248.412 281.85 243.133 289.726 238.055 290.19C231.553 289.422 224.819 288.56 218.379 290.289C216.658 290.751 215.224 291.771 213.434 292.207C212.521 292.43 211.648 292.711 210.857 292.109L210.794 291.21C209.132 292.35 204.478 295.643 202.619 295.664C201.878 295.777 201.53 295.956 200.904 296.372C197.046 298.094 191.466 300.17 187.166 299.619C182.658 300.462 178.163 299.743 173.698 298.963L173.502 299.532Q174.126 299.906 174.734 300.306C169.406 299.26 164.531 297.929 159.437 296.042C153.168 293.878 146.912 290.278 141.444 286.545C140.336 288.577 135.597 295.854 135.486 297.56C135.104 298.036 134.745 298.481 134.276 298.878C133.993 299.418 133.721 299.938 133.36 300.432C130.995 299.035 129.011 297.315 127.802 294.795C128.119 289.286 126.787 278.4 124.896 273.367C123.404 269.399 121.077 265.609 120.542 261.344C119.626 260.706 118.892 259.567 118.187 258.7C116.549 256.096 114.442 253.631 112.703 251.052L111.333 248.095C110.742 247.068 110.245 245.992 109.729 244.925L109.29 244.958C108.819 239.241 105.017 235.542 107.033 229.432C107.089 229.153 107.148 228.877 107.225 228.604C108.3 224.787 113.142 221.726 116.335 219.876C119.168 217.892 122.217 216.54 125.382 215.192C126.919 214.18 128.548 213.348 130.176 212.496C127.77 209.45 123.538 207.42 120.674 204.704C109.358 193.973 106.681 177.562 106.262 162.701C105.965 160.54 104.824 160.121 103.603 158.536C102.715 157.384 103.079 156.071 103.267 154.751L103.482 153.294C103.824 150.699 104.003 147.7 105.123 145.312C105.946 143.554 106.875 142.636 108.696 141.973Z"/>
	<path fill="#FEFEFE" d="M108.208 143.663L109.569 143.645L109.987 144.084C108.638 146.637 107.736 150.182 105.595 152.142C105.569 151.974 105.539 151.806 105.525 151.637C105.241 148.335 106.206 146.185 108.208 143.663Z"/>
	<path fill="#AB1A1A" d="M106.262 162.701C105.965 160.54 104.824 160.121 103.603 158.536C102.715 157.384 103.079 156.071 103.267 154.751C104.267 155.473 105.515 155.688 106.658 156.113C106.722 158.333 106.767 160.523 106.262 162.701Z"/>
	<path fill="#AB1A1A" d="M199.876 172.315C199.45 167.051 200.016 163.711 202.208 158.855C200.262 161.573 200.088 163.891 199.111 166.966C199.424 163.944 199.694 161.545 201.362 158.898C202.725 156.736 204.408 155.376 206.92 154.809C200.756 161.234 200.84 163.587 199.876 172.315Z"/>
	<path fill="#FEFEFE" d="M274.538 149.384C274.866 149.399 275.162 149.425 275.485 149.484C276.589 149.686 277.417 150.123 278.043 151.059C278.161 151.572 278.279 152.009 278.109 152.525C277.722 153.707 276.564 154.177 275.532 154.675C275.164 154.708 274.811 154.75 274.445 154.665C273.52 154.45 272.683 154.029 272.121 153.263C271.964 152.723 271.849 152.316 271.985 151.756C272.294 150.485 273.502 149.988 274.538 149.384Z"/>
	<path fill="#AB1A1A" d="M275.388 143.698C278.31 144.17 282.026 144.638 284.583 146.223C284.306 146.978 284.278 157.729 284.288 159.425C282.161 156.406 282.684 153.052 281.397 149.76C280.161 146.599 277.739 145.278 274.821 143.996L275.388 143.698Z"/>
	<path fill="#C15920" d="M188.98 169.423C189.551 169.804 190.113 170.17 190.387 170.824C191.899 174.443 192.418 178.823 193.543 182.608C194.98 187.443 197.075 192.196 198.376 197.036C198.433 197.247 198.485 197.547 198.458 197.772C197.784 197.507 197.089 196.146 196.694 195.544C193.99 191.424 192.196 186.88 190.872 182.154C190.391 180.439 190.104 178.422 189.345 176.83C189.116 176.352 189.016 175.968 188.92 175.446C188.577 173.268 188.367 171.574 188.98 169.423Z"/>
	<path fill="#E24B4B" d="M212.665 205.06C210.203 203.714 207.712 201.616 205.712 199.665C199.38 193.485 196.189 185.007 196.094 176.172C199.948 188.283 201.974 197.579 213.536 204.576C214.891 205.123 216.272 205.829 217.757 205.84L219.53 206.66L220.436 206.239C223.171 206.634 225.744 207.694 228.465 208.169C230.587 208.572 232.719 208.662 234.844 208.992C236.944 209.183 239.204 209.25 241.292 208.941C244.685 208.716 248.134 208.163 251.332 206.982C258.025 204.51 261.412 199.682 264.25 193.427C264.589 194.213 264.461 194.437 264.141 195.241C263.597 196.61 262.802 197.915 262.145 199.238L264.523 196.189C264.302 198.627 259.501 203.621 257.624 205.196C250.875 210.858 240.673 211.74 232.232 210.945C225.297 210.292 218.715 208.624 212.665 205.06Z"/>
	<path fill="#AB1A1A" d="M220.436 206.239C223.171 206.634 225.744 207.694 228.465 208.169C227.268 208.688 226.341 208.811 225.046 208.702C223.23 208.55 220.746 208.098 219.53 206.66L220.436 206.239Z"/>
	<path fill="#AB1A1A" d="M167.402 193.028C167.103 192.869 166.822 192.646 166.544 192.453C166.239 190.451 169.364 186.541 170.225 184.595C171.637 181.407 172.349 177.735 173.477 174.414C174.257 172.117 175.883 168.339 178.26 167.296C179.658 166.682 181.145 167.007 182.495 167.566C181.799 170.156 181.447 172.797 180.828 175.399C178.849 183.72 174.567 188.59 167.402 193.028Z"/>
	<path fill="#AB1A1A" d="M131.953 204.453Q131.228 204.665 130.472 204.671C126.427 204.665 121.065 199.741 118.48 197.004C111.881 190.018 110.757 183.159 111.03 173.87C111.238 166.798 111.877 154.019 117.285 149.046C119.343 147.154 121.165 146.956 123.832 147.092C120.287 148.698 117.838 151.531 116.451 155.135C112.566 165.23 113.336 181.742 117.83 191.546C118.317 192.608 118.844 193.634 119.534 194.58C122.774 199.349 126.891 201.897 131.953 204.453Z"/>
	<path fill="#E24B4B" d="M108.696 141.973C112.883 140.613 117.386 139.894 121.749 139.372C133.378 137.981 142.723 138.629 154.045 141.776L153.847 142.203C157.771 144.843 170.49 148.325 171.765 152.656L171.557 153.165L170.354 152.489C169.923 153.457 170.811 154.2 170.42 155.197C168.623 155.045 166.287 152.03 164.732 150.933C163.339 149.95 161.729 149.128 160.182 148.417C151.759 144.541 142.079 142.526 132.846 142.084C130.827 141.987 128.689 141.838 126.677 142.042C123.004 142.416 112.723 145.442 109.987 144.084L109.569 143.645L108.208 143.663C108.556 143.31 108.844 142.993 109.105 142.57L108.696 141.973Z"/>
	<path fill="#0E2E4B" d="M228.63 150.156L229.179 150.497C228.801 153.609 206.827 185.987 203.012 189.573C200.985 183.875 200.363 178.299 199.876 172.315C200.84 163.587 200.756 161.234 206.92 154.809C213.255 151.716 221.654 150.645 228.63 150.156Z"/>
	<path fill="#0E2E4B" d="M241.292 208.941C240.389 208.944 239.622 208.941 238.753 208.679C239.53 205.979 244.74 198.814 246.452 195.689C250.09 189.051 254.126 182.628 257.731 175.977C260.744 170.419 263.493 163.58 267.22 158.571C269.847 167.968 267.382 184.065 264.25 193.427C261.412 199.682 258.025 204.51 251.332 206.982C248.134 208.163 244.685 208.716 241.292 208.941Z"/>
	<path fill="#0E2E4B" d="M123.832 147.092C130.858 145.871 137.596 145.687 144.6 147.29C140.683 153.99 136.933 160.777 133.093 167.52C128.094 176.299 122.849 185.021 119.534 194.58C118.844 193.634 118.317 192.608 117.83 191.546C113.336 181.742 112.566 165.23 116.451 155.135C117.838 151.531 120.287 148.698 123.832 147.092Z"/>
	<path fill="#0E2E4B" d="M254.527 149.976C258.836 150.374 262.682 151.891 265.539 155.253C266.105 155.919 266.517 156.648 266.915 157.423L267.22 158.571C263.493 163.58 260.744 170.419 257.731 175.977C254.126 182.628 250.09 189.051 246.452 195.689C244.74 198.814 239.53 205.979 238.753 208.679C239.622 208.941 240.389 208.944 241.292 208.941C239.204 209.25 236.944 209.183 234.844 208.992C232.719 208.662 230.587 208.572 228.465 208.169C225.744 207.694 223.171 206.634 220.436 206.239C221.867 201.676 225.764 196.871 228.381 192.857Q237.936 177.943 247.218 162.858C249.758 158.692 253.127 154.688 254.527 149.976Z"/>
	<path fill="#5B5D6C" d="M266.915 157.423L267.22 158.571C263.493 163.58 260.744 170.419 257.731 175.977C254.126 182.628 250.09 189.051 246.452 195.689C244.74 198.814 239.53 205.979 238.753 208.679C239.622 208.941 240.389 208.944 241.292 208.941C239.204 209.25 236.944 209.183 234.844 208.992C238.049 202.039 242.713 195.441 246.955 189.085Q252.525 180.736 257.897 172.257C261.01 167.406 263.378 161.982 266.915 157.423Z"/>
	<path fill="#5B5D6C" d="M228.63 150.156C237.129 149.358 245.975 150.214 254.527 149.976C253.127 154.688 249.758 158.692 247.218 162.858Q237.936 177.943 228.381 192.857C225.764 196.871 221.867 201.676 220.436 206.239L219.53 206.66L217.757 205.84C216.894 205.377 216.069 204.866 215.25 204.329C210.061 200.933 204.353 195.95 203.012 189.573C206.827 185.987 228.801 153.609 229.179 150.497L228.63 150.156Z"/>
	<path fill="#5B5D6C" d="M144.6 147.29C150.152 147.957 156.264 150.298 161.229 152.824C162.461 153.404 163.304 154.14 164.296 155.051C166.209 157.19 167.259 159.736 168.428 162.319C170.147 171.42 167.686 180.943 163.959 189.238C162.876 191.649 161.236 194.266 160.581 196.801Q155.693 199.835 150.683 202.663C148.447 204.147 145.964 205.251 143.577 206.47L141.566 205.356C138.437 206.341 135.12 205.606 132.146 204.454L131.953 204.453C126.891 201.897 122.774 199.349 119.534 194.58C122.849 185.021 128.094 176.299 133.093 167.52C136.933 160.777 140.683 153.99 144.6 147.29Z"/>
	<path fill="#0E2E4B" d="M161.229 152.824C162.461 153.404 163.304 154.14 164.296 155.051C161.542 159.694 158.996 167.743 156.879 172.972C154.044 179.972 150.818 186.778 147.699 193.653C145.953 197.5 144.272 202.069 141.566 205.356C138.437 206.341 135.12 205.606 132.146 204.454C136.192 195.617 141.427 187.3 146.164 178.816C151.021 170.115 155.472 160.966 161.229 152.824Z"/>
	<path fill="#5B5D6C" d="M164.296 155.051C166.209 157.19 167.259 159.736 168.428 162.319C170.147 171.42 167.686 180.943 163.959 189.238C162.876 191.649 161.236 194.266 160.581 196.801Q155.693 199.835 150.683 202.663C148.447 204.147 145.964 205.251 143.577 206.47L141.566 205.356C144.272 202.069 145.953 197.5 147.699 193.653C150.818 186.778 154.044 179.972 156.879 172.972C158.996 167.743 161.542 159.694 164.296 155.051Z"/>
	<path fill="#0E2E4B" d="M168.428 162.319C170.147 171.42 167.686 180.943 163.959 189.238C162.876 191.649 161.236 194.266 160.581 196.801Q155.693 199.835 150.683 202.663C150.649 202.577 150.605 202.494 150.58 202.404C150.399 201.748 150.586 201.111 150.829 200.495C151.819 197.995 153.65 195.623 154.924 193.233Q159.243 184.977 163.169 176.527C164.83 172.868 166.796 164.762 168.428 162.319Z"/>
	<path fill="#C15920" d="M284.583 146.223C285.723 146.927 286.984 147.599 288.042 148.414C292.972 150.886 297.906 153.29 302.65 156.107C304.227 157.624 306.601 158.881 308.68 159.556C313.849 161.95 318.544 165.154 323.616 167.683C324.685 172.445 322.463 178.047 321.965 182.804L321.524 183.771C319.876 190.378 317.809 197.103 315.339 203.447C313.902 207.138 312.117 210.739 310.781 214.459L310.705 214.693C309.082 219.531 306.789 224.175 304.854 228.895C299.844 241.118 296.52 252.869 295.673 266.074C283.212 274.827 277.075 279.083 261.225 278.983C258.53 278.966 255.505 279.245 252.855 278.869C252.537 278.824 252.336 278.746 252.074 278.567C254.055 275.684 254.724 272.155 255.601 268.833C255.413 265.697 253.969 262.044 252.349 259.387C245.586 248.294 236.685 249.109 226.49 244.022C222.105 241.835 218.521 238.932 215.381 235.17C211.099 230.04 207.818 223.975 204.041 218.467C199.187 211.387 191.023 203.445 188.764 195.08C187.149 189.102 188.368 181.527 188.92 175.446C189.016 175.968 189.116 176.352 189.345 176.83C190.104 178.422 190.391 180.439 190.872 182.154C192.196 186.88 193.99 191.424 196.694 195.544C197.089 196.146 197.784 197.507 198.458 197.772C199.303 199.113 200.461 200.653 201.726 201.61C204.427 201.912 207.585 206.833 209.825 208.556C211.502 209.847 213.527 210.859 215.464 211.698C224.801 215.743 242.516 216.915 251.929 213.118C257.115 211.027 262.985 207.157 265.268 201.844C268.813 194.36 271.322 186.178 273.755 178.268C274.864 174.661 275.715 170.569 277.313 167.151C278.777 164.02 283.587 161.966 284.288 159.425C284.278 157.729 284.306 146.978 284.583 146.223Z"/>
	<path fill="#4B372B" d="M310.262 178.443C313.91 180.104 318.168 181.623 321.524 183.771C319.876 190.378 317.809 197.103 315.339 203.447C313.902 207.138 312.117 210.739 310.781 214.459L310.222 214.572L308.172 213.191C309.667 208.343 309.189 202.924 309.31 197.901C309.466 191.461 309.565 184.847 310.262 178.443Z"/>
	<defs>
		<linearGradient id="gradient_0" gradientUnits="userSpaceOnUse" x1="285.17819" y1="147.00493" x2="294.49316" y2="195.85425">
			<stop offset="0" stop-color="#5F0000"/>
			<stop offset="1" stop-color="#8C0100"/>
		</linearGradient>
	</defs>
	<path fill="url(#gradient_0)" d="M284.583 146.223C285.723 146.927 286.984 147.599 288.042 148.414C287.732 150.989 288.109 153.711 288.169 156.303C288.224 158.654 288.033 161.003 288.024 163.352C292.474 165.62 320.536 179.986 321.639 181.229L321.965 182.804L321.524 183.771C318.168 181.623 313.91 180.104 310.262 178.443C302.762 175.211 289.965 165.88 282.961 164.924C281.419 166.45 280.513 167.905 279.606 169.875C277.04 175.443 275.728 181.563 273.714 187.342C272.626 190.464 270.611 193.86 270.064 197.063C268.885 198.797 267.934 200.744 266.537 202.31L265.268 201.844C268.813 194.36 271.322 186.178 273.755 178.268C274.864 174.661 275.715 170.569 277.313 167.151C278.777 164.02 283.587 161.966 284.288 159.425C284.278 157.729 284.306 146.978 284.583 146.223Z"/>
	<path fill="#AB1A1A" d="M288.042 148.414C292.972 150.886 297.906 153.29 302.65 156.107C304.227 157.624 306.601 158.881 308.68 159.556C313.849 161.95 318.544 165.154 323.616 167.683C324.685 172.445 322.463 178.047 321.965 182.804L321.639 181.229C320.536 179.986 292.474 165.62 288.024 163.352C288.033 161.003 288.224 158.654 288.169 156.303C288.109 153.711 287.732 150.989 288.042 148.414Z"/>
	<path fill="#905132" d="M308.172 213.191L310.222 214.572L310.781 214.459L310.705 214.693C309.082 219.531 306.789 224.175 304.854 228.895C299.844 241.118 296.52 252.869 295.673 266.074C283.212 274.827 277.075 279.083 261.225 278.983C258.53 278.966 255.505 279.245 252.855 278.869C252.537 278.824 252.336 278.746 252.074 278.567C254.055 275.684 254.724 272.155 255.601 268.833C256.073 268.854 256.379 268.77 256.823 268.616C262.012 266.886 267.231 265.461 272.307 263.385C298.065 252.848 298.668 235.956 308.172 213.191Z"/>
	<path fill="#DF702F" d="M188.92 175.446C189.016 175.968 189.116 176.352 189.345 176.83C190.104 178.422 190.391 180.439 190.872 182.154C192.196 186.88 193.99 191.424 196.694 195.544C197.089 196.146 197.784 197.507 198.458 197.772C199.303 199.113 200.461 200.653 201.726 201.61C204.427 201.912 207.585 206.833 209.825 208.556C211.502 209.847 213.527 210.859 215.464 211.698C224.801 215.743 242.516 216.915 251.929 213.118C257.115 211.027 262.985 207.157 265.268 201.844L266.537 202.31C267.934 200.744 268.885 198.797 270.064 197.063C275.379 193.696 278.096 186.581 282.52 182.122C289.725 182.382 295.424 185.469 300.464 190.493C296.199 210.829 290.372 219.043 273.185 230.493C270.778 232.096 266.811 234.609 265.418 237.181C263.031 241.591 262.25 249.769 260.925 254.864C260.018 258.355 256.984 265.791 256.823 268.616C256.379 268.77 256.073 268.854 255.601 268.833C255.413 265.697 253.969 262.044 252.349 259.387C245.586 248.294 236.685 249.109 226.49 244.022C222.105 241.835 218.521 238.932 215.381 235.17C211.099 230.04 207.818 223.975 204.041 218.467C199.187 211.387 191.023 203.445 188.764 195.08C187.149 189.102 188.368 181.527 188.92 175.446Z"/>
	<path fill="#AB1A1A" d="M201.726 201.61C204.427 201.912 207.585 206.833 209.825 208.556C211.502 209.847 213.527 210.859 215.464 211.698C224.801 215.743 242.516 216.915 251.929 213.118C257.115 211.027 262.985 207.157 265.268 201.844L266.537 202.31C264.35 205.976 261.228 209.862 257.902 212.52C250.356 218.551 239.926 218.472 230.791 217.432C217.874 215.96 209.927 211.876 201.726 201.61Z"/>
	<path fill="#FEFEFE" d="M182.495 167.566C184.718 167.985 186.99 168.28 188.98 169.423C188.367 171.574 188.577 173.268 188.92 175.446C188.368 181.527 187.149 189.102 188.764 195.08C191.023 203.445 199.187 211.387 204.041 218.467C207.818 223.975 211.099 230.04 215.381 235.17C218.521 238.932 222.105 241.835 226.49 244.022C236.685 249.109 245.586 248.294 252.349 259.387C253.969 262.044 255.413 265.697 255.601 268.833C254.724 272.155 254.055 275.684 252.074 278.567C252.024 278.61 251.974 278.653 251.925 278.697C248.412 281.85 243.133 289.726 238.055 290.19C231.553 289.422 224.819 288.56 218.379 290.289C216.658 290.751 215.224 291.771 213.434 292.207C212.521 292.43 211.648 292.711 210.857 292.109L210.794 291.21C209.132 292.35 204.478 295.643 202.619 295.664C201.878 295.777 201.53 295.956 200.904 296.372C197.046 298.094 191.466 300.17 187.166 299.619C182.658 300.462 178.163 299.743 173.698 298.963L173.502 299.532Q174.126 299.906 174.734 300.306C169.406 299.26 164.531 297.929 159.437 296.042C153.168 293.878 146.912 290.278 141.444 286.545C140.336 288.577 135.597 295.854 135.486 297.56C135.104 298.036 134.745 298.481 134.276 298.878C133.993 299.418 133.721 299.938 133.36 300.432C130.995 299.035 129.011 297.315 127.802 294.795C128.119 289.286 126.787 278.4 124.896 273.367C123.404 269.399 121.077 265.609 120.542 261.344C119.626 260.706 118.892 259.567 118.187 258.7C116.549 256.096 114.442 253.631 112.703 251.052L111.333 248.095C110.742 247.068 110.245 245.992 109.729 244.925L109.29 244.958C108.819 239.241 105.017 235.542 107.033 229.432C107.089 229.153 107.148 228.877 107.225 228.604C108.3 224.787 113.142 221.726 116.335 219.876C119.168 217.892 122.217 216.54 125.382 215.192C126.919 214.18 128.548 213.348 130.176 212.496C132.212 211.94 134.443 210.538 136.39 209.616C138.753 208.497 141.171 207.493 143.577 206.47C145.964 205.251 148.447 204.147 150.683 202.663Q155.693 199.835 160.581 196.801C162.972 195.907 165.406 194.629 167.402 193.028C174.567 188.59 178.849 183.72 180.828 175.399C181.447 172.797 181.799 170.156 182.495 167.566Z"/>
	<path fill="#2E150F" d="M202.619 295.664C205.078 293.374 208.742 291.664 211.531 289.679C216.83 285.906 221.772 281.475 227.359 278.13C229.045 277.121 230.945 276.411 232.832 275.882C235.465 275.143 239.208 274.409 241.719 275.823C242.331 276.651 242.433 277.077 242.306 278.119C241.981 280.774 240.054 281.346 238.222 282.77L237.934 282.998C237.964 285.369 237.864 287.832 238.055 290.19C231.553 289.422 224.819 288.56 218.379 290.289C216.658 290.751 215.224 291.771 213.434 292.207C212.521 292.43 211.648 292.711 210.857 292.109L210.794 291.21C209.132 292.35 204.478 295.643 202.619 295.664Z"/>
	<path fill="#E4DFDB" d="M210.794 291.21C224.146 281.864 223.399 285.869 237.72 283.042L237.934 282.998C237.964 285.369 237.864 287.832 238.055 290.19C231.553 289.422 224.819 288.56 218.379 290.289C216.658 290.751 215.224 291.771 213.434 292.207C212.521 292.43 211.648 292.711 210.857 292.109L210.794 291.21Z"/>
	<defs>
		<linearGradient id="gradient_1" gradientUnits="userSpaceOnUse" x1="123.24926" y1="260.09189" x2="146.52693" y2="213.83594">
			<stop offset="0" stop-color="#4F3630"/>
			<stop offset="1" stop-color="#745241"/>
		</linearGradient>
	</defs>
	<path fill="url(#gradient_1)" d="M125.382 215.192C125.457 215.201 125.531 215.211 125.606 215.217C128.57 215.491 131.829 214.643 134.836 214.515C145.245 214.069 158.429 216.324 165.603 224.633C167.753 227.123 168.803 230.056 168.855 233.33L168.363 237.215C167.637 240.151 166.831 242.938 165.5 245.671C165.503 245.773 165.508 245.875 165.51 245.977C165.569 249.618 162.969 253.022 161.43 256.195C160.374 258.374 159.519 260.865 159.461 263.307C159.237 272.66 167.728 283.584 174.18 289.972C177.192 292.955 183.125 298.831 187.166 299.619C182.658 300.462 178.163 299.743 173.698 298.963L173.502 299.532Q174.126 299.906 174.734 300.306C169.406 299.26 164.531 297.929 159.437 296.042C153.168 293.878 146.912 290.278 141.444 286.545C140.336 288.577 135.597 295.854 135.486 297.56C135.104 298.036 134.745 298.481 134.276 298.878C133.993 299.418 133.721 299.938 133.36 300.432C130.995 299.035 129.011 297.315 127.802 294.795C128.119 289.286 126.787 278.4 124.896 273.367C123.404 269.399 121.077 265.609 120.542 261.344C119.626 260.706 118.892 259.567 118.187 258.7C116.549 256.096 114.442 253.631 112.703 251.052L111.333 248.095C110.742 247.068 110.245 245.992 109.729 244.925L109.29 244.958C108.819 239.241 105.017 235.542 107.033 229.432C107.089 229.153 107.148 228.877 107.225 228.604C108.3 224.787 113.142 221.726 116.335 219.876C119.168 217.892 122.217 216.54 125.382 215.192Z"/>
	<path fill="#4B372B" d="M166.597 237.004C167.091 235.413 167.236 233.724 167.977 232.216L168.392 232.089L168.855 233.33L168.363 237.215C168.088 236.698 167.984 236.442 167.537 236.054L166.597 237.004Z"/>
	<path fill="#E4DFDB" d="M127.557 218.386L128.835 218.583L128.898 218.992C127.485 220.363 120.377 222.7 118.204 223.356C115.415 224.307 112.29 225.118 109.923 226.939C108.918 227.711 108.067 228.709 107.033 229.432C107.089 229.153 107.148 228.877 107.225 228.604C108.3 224.787 113.142 221.726 116.335 219.876C119.186 220.338 124.558 218.875 127.557 218.386Z"/>
	<path fill="#2E150F" d="M113.079 233.533C114.194 233.43 115.278 233.327 116.375 233.092C119.099 234.435 121.18 235.796 122.203 238.856C122.865 240.838 122.898 242.73 122.753 244.792C121.482 246.972 119.776 248.484 117.884 250.119C115.697 249.46 113.498 248.825 111.333 248.095C110.742 247.068 110.245 245.992 109.729 244.925C109.791 240.549 109.979 236.904 113.079 233.533Z"/>
	<path fill="#A69B9A" d="M127.557 218.386C135.54 217.298 148.577 218.154 155.075 222.976C155.804 223.516 156.39 224.097 156.591 224.997C156.32 225.577 156.285 225.722 155.644 225.963C151.629 227.47 139.948 224.174 135.021 223.878C130.709 223.619 121.717 224.603 118.204 223.356C120.377 222.7 127.485 220.363 128.898 218.992L128.835 218.583L127.557 218.386Z"/>
	<path fill="#2E150F" d="M137.241 239.044C138.77 236.95 140.288 235.176 142.908 234.441C146.625 233.399 150.044 235.159 153.202 236.909C154.585 240.303 155.882 244.113 156.618 247.7C161.065 244.671 164.152 241.903 166.597 237.004L167.537 236.054C167.984 236.442 168.088 236.698 168.363 237.215C167.637 240.151 166.831 242.938 165.5 245.671C157.586 255.703 148.086 263.004 135.978 267.311C138.327 274.619 138.624 283.474 146.246 287.412C151.387 290.068 156.801 292.327 161.834 295.178C165.596 296.384 169.375 297.866 173.211 298.78C173.557 298.862 173.413 298.807 173.698 298.963L173.502 299.532Q174.126 299.906 174.734 300.306C169.406 299.26 164.531 297.929 159.437 296.042C153.168 293.878 146.912 290.278 141.444 286.545C140.336 288.577 135.597 295.854 135.486 297.56C135.104 298.036 134.745 298.481 134.276 298.878C133.993 299.418 133.721 299.938 133.36 300.432C130.995 299.035 129.011 297.315 127.802 294.795C128.119 289.286 126.787 278.4 124.896 273.367C123.404 269.399 121.077 265.609 120.542 261.344C119.626 260.706 118.892 259.567 118.187 258.7C120.01 258.115 127.496 263.551 130.247 264.007C130.959 264.125 131.318 264.123 131.898 263.726C133.15 259.158 130.313 253.087 130.136 248.42C130.079 246.942 129.781 241.354 130.646 240.406C131.021 243.294 133.562 263.801 134.288 264.502C135.661 264.439 137.005 263.86 138.252 263.316C142.31 261.545 157.281 253.304 158.755 249.518L158.469 249.032C155.173 248.56 152.324 249.829 147.704 248.886C143.271 247.98 140.015 246.389 137.492 242.559C137.495 241.378 137.361 240.217 137.241 239.044Z"/>
	<path fill="#A69B9A" d="M120.542 261.344C124.795 263.457 128.683 266.204 133.164 267.856C135.023 270.987 138.026 280.976 138.952 284.631C138.283 287.83 133.281 296.391 134.276 298.878C133.993 299.418 133.721 299.938 133.36 300.432C130.995 299.035 129.011 297.315 127.802 294.795C128.119 289.286 126.787 278.4 124.896 273.367C123.404 269.399 121.077 265.609 120.542 261.344Z"/>
	<path fill="#A69B9A" d="M165.5 245.671C165.503 245.773 165.508 245.875 165.51 245.977C165.569 249.618 162.969 253.022 161.43 256.195C160.374 258.374 159.519 260.865 159.461 263.307C159.237 272.66 167.728 283.584 174.18 289.972C177.192 292.955 183.125 298.831 187.166 299.619C182.658 300.462 178.163 299.743 173.698 298.963C173.413 298.807 173.557 298.862 173.211 298.78C169.375 297.866 165.596 296.384 161.834 295.178C156.801 292.327 151.387 290.068 146.246 287.412C138.624 283.474 138.327 274.619 135.978 267.311C148.086 263.004 157.586 255.703 165.5 245.671Z"/>
	<path fill="#057B90" d="M295.673 266.074C295.704 266.212 295.736 266.349 295.764 266.487C296.428 269.706 295.978 273.519 296.343 276.855C297.433 286.807 303.333 296.81 311.589 302.483C317.75 306.717 321.449 305.601 327.987 307.047L332.783 307.084C339.279 307.289 345.601 304.788 351.679 302.827C353.169 309.525 355.271 316.111 357.334 322.65C358.011 324.797 357.336 327.068 357.773 327.78C358.134 328.369 382.598 349.34 383.715 350.03C384.098 350.267 384.485 350.467 384.908 350.624L385.943 351.262C392.405 354.943 405.845 380.405 408.136 381.105L408.344 380.931C408.967 386.271 415.742 389.432 414.795 396.069C413.035 397.894 411.435 399.938 409.585 401.663C405.165 405.382 401.276 409.891 397.306 414.089C386.758 425.243 374.969 436.729 370.094 451.668C369.961 454.727 370.622 466.06 369.334 468.114L368.953 468.282L368.513 468.766C363.818 472.293 357.648 473.861 352.065 475.418C349.91 476.018 347.584 476.541 345.612 477.619C337.151 480.375 295.77 493.944 290.145 491.497C284.481 493.911 278.402 495.66 274.065 500.352C272.599 501.938 270.847 505.104 269.074 506.175C266.564 504.987 263.406 504.784 260.669 504.339C254.595 503.352 234.726 500.939 230.644 498.785C230.576 498.725 230.501 498.672 230.44 498.605C228.82 496.81 224.514 481.341 224.675 478.746Q221.957 472.823 220.468 466.479Q219.245 462.625 217.902 458.811Q214.967 449.613 211.834 440.48C210.75 437.269 209.455 434.001 208.643 430.715C206.885 427.706 206.51 423.95 204.639 420.873C197.927 409.836 182.13 412.914 171.242 410.246L171.033 410.193L167.955 409.863C163.37 409.439 159.103 408.994 154.691 407.562C150.519 407.301 146.456 406.515 142.313 406.021C142.622 403.617 143.293 401.266 143.885 398.919C145.159 391.551 146.685 384.336 148.751 377.146C148.766 377.044 148.779 376.942 148.795 376.84C150.285 367.158 158.292 355.854 165.558 349.45C168.439 346.91 171.694 344.94 174.787 342.691L174.707 339.141C172.755 328.958 179.502 312.949 185.225 304.499C179.15 305.77 172.82 306.961 166.612 307.254C154.202 307.84 146.376 304.576 137.32 296.36C136.41 296.567 136.159 296.932 135.486 297.56C135.597 295.854 140.336 288.577 141.444 286.545C146.912 290.278 153.168 293.878 159.437 296.042C164.531 297.929 169.406 299.26 174.734 300.306Q174.126 299.906 173.502 299.532L173.698 298.963C178.163 299.743 182.658 300.462 187.166 299.619C191.466 300.17 197.046 298.094 200.904 296.372C201.53 295.956 201.878 295.777 202.619 295.664C204.478 295.643 209.132 292.35 210.794 291.21L210.857 292.109C211.648 292.711 212.521 292.43 213.434 292.207C215.224 291.771 216.658 290.751 218.379 290.289C224.819 288.56 231.553 289.422 238.055 290.19C243.133 289.726 248.412 281.85 251.925 278.697C251.974 278.653 252.024 278.61 252.074 278.567C252.336 278.746 252.537 278.824 252.855 278.869C255.505 279.245 258.53 278.966 261.225 278.983C277.075 279.083 283.212 274.827 295.673 266.074Z"/>
	<path fill="#E4DFDB" d="M328.705 365.33L330.495 363.843C331.95 362.643 333.182 360.95 334.451 359.542C341.921 351.259 348.761 342.185 353.98 332.314C354.348 331.618 356.178 327.836 356.671 327.685C356.813 327.641 356.968 327.68 357.117 327.677L356.861 327.594L357.109 328.145C352.893 337.647 346.828 347.049 340.234 355.064C338.253 357.472 336.039 359.683 333.994 362.036C331.572 364.821 329.058 368.509 325.785 370.332C325.413 369.801 325.213 369.779 324.637 369.512C325.878 368.049 327.358 366.704 328.705 365.33Z"/>
	<path fill="#CD2E32" d="M258.083 361.643L259.687 363.953C261.319 366.535 262.878 369.228 264.632 371.727C261.4 374.757 255.918 376.675 251.653 377.544C251.163 377.786 250.643 377.934 250.111 378.059C249.049 378.307 248.497 378.153 247.605 377.599L250.537 373.188C252.482 370.701 254.195 367.587 255.725 364.809C256.476 363.721 257.263 362.68 258.083 361.643Z"/>
	<path fill="#AB1A1A" d="M258.083 361.643L259.687 363.953C258.73 365.479 258.551 367.32 257.613 368.855C255.806 371.808 253.097 374.41 251.653 377.544C251.163 377.786 250.643 377.934 250.111 378.059C249.049 378.307 248.497 378.153 247.605 377.599L250.537 373.188C252.482 370.701 254.195 367.587 255.725 364.809C256.476 363.721 257.263 362.68 258.083 361.643Z"/>
	<path fill="#E24B4B" d="M224.156 384.027C225.515 384.065 227.293 384.187 228.534 384.765C230.45 386.522 238.236 388.63 241.083 389.464C243.613 391.634 246.061 400.37 247.627 403.748C248.59 406.171 249.538 408.588 250.017 411.163C252.767 416.91 259.255 440.858 259.486 446.823C259.57 448.99 258.973 451.147 258.254 453.171C255.657 460.482 251.143 467.985 246.809 474.382C243.952 479.163 239.681 488.28 235.709 491.833C235.136 491.826 235.355 491.926 235.009 491.656C231.898 490.469 227.366 481.598 224.675 478.746Q221.957 472.823 220.468 466.479Q219.245 462.625 217.902 458.811Q214.967 449.613 211.834 440.48C210.75 437.269 209.455 434.001 208.643 430.715C211.786 424.63 213.41 416.199 215.392 409.504C216.959 404.212 218.845 399.022 220.383 393.72C220.936 391.447 221.749 389.248 222.515 387.04L222.623 387.065C222.994 386.098 223.487 385.292 224.035 384.422L224.156 384.027Z"/>
	<path fill="#FE8B87" d="M217.902 458.811C219.971 457.32 221.841 455.716 224.587 456.253Q224.823 456.299 225.053 456.37Q225.283 456.441 225.505 456.535Q225.727 456.629 225.937 456.746Q226.148 456.862 226.346 457Q226.543 457.137 226.725 457.295Q226.908 457.452 227.073 457.627Q227.238 457.803 227.384 457.994Q227.53 458.185 227.655 458.391C228.409 459.634 228.592 461.188 228.226 462.589C227.836 464.083 226.795 465.263 225.436 465.966C223.746 466.838 222.272 466.72 220.468 466.479Q219.245 462.625 217.902 458.811Z"/>
	<path fill="#FE8B87" d="M220.12 416.015Q220.869 415.968 221.618 416.024C223.16 416.153 224.959 416.915 225.94 418.135C226.765 419.161 227.06 420.494 226.841 421.782C226.43 424.198 224.7 425.649 222.812 426.972C221.866 427.084 220.848 427.061 219.942 426.743C217.732 425.967 216.827 424.055 215.902 422.087C216.618 419.173 217.782 417.814 220.12 416.015Z"/>
	<path fill="#FE8B87" d="M240.571 435.794C242.938 436.688 244.411 437.493 246.097 439.423L246.708 442.071C246.22 444.041 244.225 445.947 242.533 446.994C242.385 447.085 242.233 447.17 242.08 447.253C239.846 447.1 238.439 446.546 236.55 445.387C236.277 444.936 236.021 444.49 235.798 444.012C235.11 442.544 234.858 441.276 235.5 439.731C236.32 437.76 238.66 436.506 240.571 435.794Z"/>
	<path fill="#CD2E32" d="M246.708 442.071L246.833 442.438C246.952 442.777 247.052 442.95 247.254 443.258C247.912 444.261 248.116 446.055 248.275 447.231C249.058 453.001 248.364 459.26 247.441 464.983C247.07 467.282 246.437 469.703 246.319 472.022C246.278 472.843 246.49 473.509 246.77 474.268C246.784 474.305 246.796 474.344 246.809 474.382C243.952 479.163 239.681 488.28 235.709 491.833C235.136 491.826 235.355 491.926 235.009 491.656C234.6 486.843 238.458 473.417 239.46 468.02Q241.341 457.709 242.08 447.253C242.233 447.17 242.385 447.085 242.533 446.994C244.225 445.947 246.22 444.041 246.708 442.071Z"/>
	<path fill="#AB1A1A" d="M224.156 384.027C225.515 384.065 227.293 384.187 228.534 384.765C230.45 386.522 238.236 388.63 241.083 389.464C243.613 391.634 246.061 400.37 247.627 403.748C248.59 406.171 249.538 408.588 250.017 411.163C252.767 416.91 259.255 440.858 259.486 446.823C259.57 448.99 258.973 451.147 258.254 453.171C255.657 460.482 251.143 467.985 246.809 474.382C246.796 474.344 246.784 474.305 246.77 474.268C246.49 473.509 246.278 472.843 246.319 472.022C246.437 469.703 247.07 467.282 247.441 464.983C248.364 459.26 249.058 453.001 248.275 447.231C248.116 446.055 247.912 444.261 247.254 443.258C247.052 442.95 246.952 442.777 246.833 442.438L246.708 442.071L246.097 439.423C244.411 437.493 242.938 436.688 240.571 435.794L240.142 435.245C240.435 434.741 240.694 434.317 240.737 433.717C241.118 428.473 235.953 416.179 235.817 409.32C235.114 406.508 234.063 403.454 232.77 400.856C231.673 398.65 230.514 397.078 228.083 396.278C223.565 397.343 223.889 394.279 220.383 393.72C220.936 391.447 221.749 389.248 222.515 387.04L222.623 387.065C222.994 386.098 223.487 385.292 224.035 384.422L224.156 384.027Z"/>
	<path fill="#E24B4B" d="M224.035 384.422C226.117 385.924 228.172 387.395 229.688 389.5L230.203 393.272C230.074 393.227 229.946 393.179 229.817 393.136C227.113 392.243 224.595 389.062 222.623 387.065C222.994 386.098 223.487 385.292 224.035 384.422Z"/>
	<path fill="#FE8B87" d="M222.623 387.065C224.595 389.062 227.113 392.243 229.817 393.136C229.946 393.179 230.074 393.227 230.203 393.272C229.667 394.44 228.909 395.313 228.083 396.278C223.565 397.343 223.889 394.279 220.383 393.72C220.936 391.447 221.749 389.248 222.515 387.04L222.623 387.065Z"/>
	<path fill="#FE8B87" d="M241.147 413.074C240.111 411.922 239.349 410.627 239.417 409.011C239.471 407.712 240.127 406.588 241.082 405.733C242.97 404.044 245.208 403.677 247.627 403.748C248.59 406.171 249.538 408.588 250.017 411.163C248.731 411.973 247.932 413.4 246.477 414.002C244.693 414.74 242.815 413.708 241.147 413.074Z"/>
	<path fill="#CD2E32" d="M235.817 409.32C239.553 412.997 245.966 432.882 246.156 438.573C246.166 438.866 246.134 439.132 246.097 439.423C244.411 437.493 242.938 436.688 240.571 435.794L240.142 435.245C240.435 434.741 240.694 434.317 240.737 433.717C241.118 428.473 235.953 416.179 235.817 409.32Z"/>
	<path fill="#06A4BB" d="M258.153 290.073L259.013 289.858L259.139 289.529L259.246 289.783C273.046 285.871 280.459 282.834 291.739 273.874C288.795 286.861 295.966 298.649 298.218 311.091C299.233 316.698 299.121 322.148 298.345 327.758C302.503 326.879 310.678 321.838 314.411 319.447C314.174 321.538 312.671 322.641 311.077 323.93C307.441 326.869 302.287 330.207 297.93 331.933C307.814 330.956 322.267 330.467 329.056 322.239C329.532 321.662 329.97 321.051 330.401 320.44C326.534 332.616 319.612 342.746 310.984 352.092C308.235 355.07 304.189 358.565 302.046 361.866C305.679 359.26 309.477 356.895 313.096 354.277C319.239 349.833 325.323 344.749 330.826 339.546C329.593 345.94 326.839 359.068 328.705 365.33C327.358 366.704 325.878 368.049 324.637 369.512C325.213 369.779 325.413 369.801 325.785 370.332C317.085 378.759 307.826 386.003 298.008 393.076C293.937 396.009 289.337 398.629 285.491 401.813Q274.659 387.049 264.632 371.727C262.878 369.228 261.319 366.535 259.687 363.953L258.083 361.643C257.263 362.68 256.476 363.721 255.725 364.809C255.532 364.541 255.38 364.285 255.256 363.978C253.706 360.148 250.339 356.148 246.509 354.44C246.396 353.81 246.316 353.316 245.839 352.85C244.847 351.881 243.202 352.155 241.923 352.2Q234.543 352.52 227.157 352.48L224.398 352.527L224.199 352.223C224.057 350.937 225.322 348.718 225.848 347.489C231.865 333.431 240.74 321.561 248.409 308.476C251.935 302.461 255.102 296.338 258.153 290.073Z"/>
	<path fill="#FEFEFE" d="M258.153 290.073L259.013 289.858L259.139 289.529L259.246 289.783C273.046 285.871 280.459 282.834 291.739 273.874C288.795 286.861 295.966 298.649 298.218 311.091C299.233 316.698 299.121 322.148 298.345 327.758C289.951 331.155 281.668 334.442 272.991 337.061Q265.238 339.388 257.462 341.636C254.561 342.474 251.512 343.178 248.685 344.23C254.883 351.592 258.934 360.122 264.303 368.01Q270.88 377.682 277.652 387.219C280.397 391.043 283.566 394.87 285.964 398.907C289.292 397.021 292.358 394.607 295.482 392.403C302.072 387.756 308.716 382.917 314.934 377.779C318.239 375.049 321.147 372.051 324.637 369.512C325.213 369.779 325.413 369.801 325.785 370.332C317.085 378.759 307.826 386.003 298.008 393.076C293.937 396.009 289.337 398.629 285.491 401.813Q274.659 387.049 264.632 371.727C262.878 369.228 261.319 366.535 259.687 363.953L258.083 361.643C257.263 362.68 256.476 363.721 255.725 364.809C255.532 364.541 255.38 364.285 255.256 363.978C253.706 360.148 250.339 356.148 246.509 354.44C246.396 353.81 246.316 353.316 245.839 352.85C244.847 351.881 243.202 352.155 241.923 352.2Q234.543 352.52 227.157 352.48L224.398 352.527L224.199 352.223C224.057 350.937 225.322 348.718 225.848 347.489C231.865 333.431 240.74 321.561 248.409 308.476C251.935 302.461 255.102 296.338 258.153 290.073Z"/>
	<path fill="#06A4BB" d="M241.923 352.2C242.543 350.481 244.23 345.859 245.922 345.053C248.68 346.232 256.192 358.64 258.083 361.643C257.263 362.68 256.476 363.721 255.725 364.809C255.532 364.541 255.38 364.285 255.256 363.978C253.706 360.148 250.339 356.148 246.509 354.44C246.396 353.81 246.316 353.316 245.839 352.85C244.847 351.881 243.202 352.155 241.923 352.2Z"/>
	<path fill="#E7D6C3" d="M295.673 266.074C295.704 266.212 295.736 266.349 295.764 266.487C296.428 269.706 295.978 273.519 296.343 276.855C297.433 286.807 303.333 296.81 311.589 302.483C317.75 306.717 321.449 305.601 327.987 307.047C326.434 313.029 319.305 316.412 314.411 319.447C310.678 321.838 302.503 326.879 298.345 327.758C299.121 322.148 299.233 316.698 298.218 311.091C295.966 298.649 288.795 286.861 291.739 273.874C280.459 282.834 273.046 285.871 259.246 289.783L259.139 289.529L259.013 289.858L258.153 290.073C255.102 296.338 251.935 302.461 248.409 308.476C240.74 321.561 231.865 333.431 225.848 347.489C225.322 348.718 224.057 350.937 224.199 352.223L224.398 352.527L227.157 352.48Q234.543 352.52 241.923 352.2C243.202 352.155 244.847 351.881 245.839 352.85C246.316 353.316 246.396 353.81 246.509 354.44C250.339 356.148 253.706 360.148 255.256 363.978C255.38 364.285 255.532 364.541 255.725 364.809C254.195 367.587 252.482 370.701 250.537 373.188L247.605 377.599L246.567 378.225C245.006 381.976 242.061 385.561 241.083 389.464C238.236 388.63 230.45 386.522 228.534 384.765C227.293 384.187 225.515 384.065 224.156 384.027L224.035 384.422C223.487 385.292 222.994 386.098 222.623 387.065L222.515 387.04C221.749 389.248 220.936 391.447 220.383 393.72C218.845 399.022 216.959 404.212 215.392 409.504C213.41 416.199 211.786 424.63 208.643 430.715C206.885 427.706 206.51 423.95 204.639 420.873C197.927 409.836 182.13 412.914 171.242 410.246L171.033 410.193L167.955 409.863C163.37 409.439 159.103 408.994 154.691 407.562C150.519 407.301 146.456 406.515 142.313 406.021C142.622 403.617 143.293 401.266 143.885 398.919C145.159 391.551 146.685 384.336 148.751 377.146C148.766 377.044 148.779 376.942 148.795 376.84C150.285 367.158 158.292 355.854 165.558 349.45C168.439 346.91 171.694 344.94 174.787 342.691L174.707 339.141C172.755 328.958 179.502 312.949 185.225 304.499C179.15 305.77 172.82 306.961 166.612 307.254C154.202 307.84 146.376 304.576 137.32 296.36C136.41 296.567 136.159 296.932 135.486 297.56C135.597 295.854 140.336 288.577 141.444 286.545C146.912 290.278 153.168 293.878 159.437 296.042C164.531 297.929 169.406 299.26 174.734 300.306Q174.126 299.906 173.502 299.532L173.698 298.963C178.163 299.743 182.658 300.462 187.166 299.619C191.466 300.17 197.046 298.094 200.904 296.372C201.53 295.956 201.878 295.777 202.619 295.664C204.478 295.643 209.132 292.35 210.794 291.21L210.857 292.109C211.648 292.711 212.521 292.43 213.434 292.207C215.224 291.771 216.658 290.751 218.379 290.289C224.819 288.56 231.553 289.422 238.055 290.19C243.133 289.726 248.412 281.85 251.925 278.697C251.974 278.653 252.024 278.61 252.074 278.567C252.336 278.746 252.537 278.824 252.855 278.869C255.505 279.245 258.53 278.966 261.225 278.983C277.075 279.083 283.212 274.827 295.673 266.074Z"/>
	<path fill="#100101" d="M200.904 296.372C200.164 297.72 196.93 298.696 195.467 299.126C189.073 301.005 181.223 302.165 174.734 300.306Q174.126 299.906 173.502 299.532L173.698 298.963C178.163 299.743 182.658 300.462 187.166 299.619C191.466 300.17 197.046 298.094 200.904 296.372Z"/>
	<path fill="#06A4BB" d="M193.92 301.43C195.273 301.023 196.64 300.72 198.019 300.417C197.772 310.001 197.068 324.413 194.182 333.38C200.482 337.435 206.772 341.28 213.509 344.568C206.409 353.148 200.557 363.535 195.581 373.473C193.981 376.163 192.372 378.814 190.581 381.381C189.254 383.622 187.96 385.904 186.373 387.974C180.676 379.699 176.918 362.552 175.645 352.65C175.25 349.577 175.59 346.146 174.901 343.155C174.865 342.999 174.825 342.845 174.787 342.691L174.707 339.141L175.072 339.068C175.655 329.37 177.795 319.951 182.464 311.369C185.821 305.199 187.205 303.41 193.92 301.43Z"/>
	<path fill="#5EB2C1" d="M181.028 332.047C181.201 332.33 181.367 332.616 181.535 332.902C186.456 341.267 191.821 369.505 195.581 373.473C193.981 376.163 192.372 378.814 190.581 381.381L190.347 381.187C190.227 381.09 190.102 380.999 189.986 380.898C187.366 378.613 185.863 364.863 185.044 361.071C183.876 355.667 182.258 350.317 181.548 344.823C181.007 340.634 181.35 336.281 181.028 332.047Z"/>
	<path fill="#07556F" d="M193.92 301.43C195.273 301.023 196.64 300.72 198.019 300.417C197.772 310.001 197.068 324.413 194.182 333.38C190.906 331.197 188.065 328.675 184.587 326.728C184.803 320.149 188.013 313.956 190.995 308.248C192.131 306.072 193.44 303.862 193.92 301.43Z"/>
	<path fill="#06A4BB" d="M174.787 342.691C174.825 342.845 174.865 342.999 174.901 343.155C175.59 346.146 175.25 349.577 175.645 352.65C176.918 362.552 180.676 379.699 186.373 387.974C187.96 385.904 189.254 383.622 190.581 381.381C192.372 378.814 193.981 376.163 195.581 373.473C200.557 363.535 206.409 353.148 213.509 344.568C214.256 344.943 214.89 345.249 215.473 345.857C216.521 346.036 217.75 347.745 218.364 348.614C219.162 349.743 219.949 350.964 220.316 352.309C221.566 352.531 223.146 352.756 224.398 352.527L227.157 352.48Q234.543 352.52 241.923 352.2C243.202 352.155 244.847 351.881 245.839 352.85C246.316 353.316 246.396 353.81 246.509 354.44C250.339 356.148 253.706 360.148 255.256 363.978C255.38 364.285 255.532 364.541 255.725 364.809C254.195 367.587 252.482 370.701 250.537 373.188L247.605 377.599L246.567 378.225C245.006 381.976 242.061 385.561 241.083 389.464C238.236 388.63 230.45 386.522 228.534 384.765C227.293 384.187 225.515 384.065 224.156 384.027L224.035 384.422C223.487 385.292 222.994 386.098 222.623 387.065L222.515 387.04C221.749 389.248 220.936 391.447 220.383 393.72C218.845 399.022 216.959 404.212 215.392 409.504C213.41 416.199 211.786 424.63 208.643 430.715C206.885 427.706 206.51 423.95 204.639 420.873C197.927 409.836 182.13 412.914 171.242 410.246L171.033 410.193L167.955 409.863C163.37 409.439 159.103 408.994 154.691 407.562C150.519 407.301 146.456 406.515 142.313 406.021C142.622 403.617 143.293 401.266 143.885 398.919C145.159 391.551 146.685 384.336 148.751 377.146C148.766 377.044 148.779 376.942 148.795 376.84C150.285 367.158 158.292 355.854 165.558 349.45C168.439 346.91 171.694 344.94 174.787 342.691Z"/>
	<path fill="#FEFEFE" d="M174.787 342.691C174.825 342.845 174.865 342.999 174.901 343.155C175.59 346.146 175.25 349.577 175.645 352.65C176.918 362.552 180.676 379.699 186.373 387.974C187.96 385.904 189.254 383.622 190.581 381.381C192.372 378.814 193.981 376.163 195.581 373.473C200.557 363.535 206.409 353.148 213.509 344.568C214.256 344.943 214.89 345.249 215.473 345.857C212.425 349.298 208.643 353.097 206.864 357.385Q201.972 365.757 197.2 374.197C195.529 377.125 193.541 380.106 192.143 383.165C190.754 386.069 189.03 388.808 187.205 391.457C178.746 377.956 174.525 360.718 174.103 344.862C169.566 347.893 162.017 354.042 159.255 358.579C168.53 376.429 170.161 390.355 171.033 410.193L167.955 409.863C168.095 395.675 166.423 382.869 161.59 369.462C160.367 366.068 159.143 362.556 157.433 359.373C155.287 363.364 153.069 367.303 151.243 371.457C150.394 373.387 149.835 375.421 149.001 377.364L148.751 377.146C148.766 377.044 148.779 376.942 148.795 376.84C150.285 367.158 158.292 355.854 165.558 349.45C168.439 346.91 171.694 344.94 174.787 342.691Z"/>
	<path fill="#057B90" d="M206.864 357.385L207.868 358.084C206.89 359.691 206.773 360.687 207.192 362.528C207.841 365.383 209.836 368.388 211.599 370.67C214.285 376.265 218.34 381.432 224.156 384.027L224.035 384.422C223.487 385.292 222.994 386.098 222.623 387.065L222.515 387.04C219.875 385.319 216.742 383.739 213.97 382.193C207.891 386.043 201.758 391.893 195.806 396.306C194.88 393.31 193.924 385.032 192.143 383.165C193.541 380.106 195.529 377.125 197.2 374.197Q201.972 365.757 206.864 357.385Z"/>
	<path fill="#06A4BB" d="M148.751 377.146L149.001 377.364C149.835 375.421 150.394 373.387 151.243 371.457C153.069 367.303 155.287 363.364 157.433 359.373C159.143 362.556 160.367 366.068 161.59 369.462C166.423 382.869 168.095 395.675 167.955 409.863C163.37 409.439 159.103 408.994 154.691 407.562C150.519 407.301 146.456 406.515 142.313 406.021C142.622 403.617 143.293 401.266 143.885 398.919C145.159 391.551 146.685 384.336 148.751 377.146Z"/>
	<path fill="#DF702F" d="M143.885 398.919C147.345 401.342 152.133 404.166 154.691 407.562C150.519 407.301 146.456 406.515 142.313 406.021C142.622 403.617 143.293 401.266 143.885 398.919Z"/>
	<path fill="#E24B4B" d="M215.473 345.857C216.521 346.036 217.75 347.745 218.364 348.614C219.162 349.743 219.949 350.964 220.316 352.309C221.566 352.531 223.146 352.756 224.398 352.527L227.157 352.48Q234.543 352.52 241.923 352.2C243.202 352.155 244.847 351.881 245.839 352.85C246.316 353.316 246.396 353.81 246.509 354.44C250.339 356.148 253.706 360.148 255.256 363.978C255.38 364.285 255.532 364.541 255.725 364.809C254.195 367.587 252.482 370.701 250.537 373.188L247.605 377.599L246.567 378.225C245.006 381.976 242.061 385.561 241.083 389.464C238.236 388.63 230.45 386.522 228.534 384.765C227.293 384.187 225.515 384.065 224.156 384.027C218.34 381.432 214.285 376.265 211.599 370.67C209.836 368.388 207.841 365.383 207.192 362.528C206.773 360.687 206.89 359.691 207.868 358.084L206.864 357.385C208.643 353.097 212.425 349.298 215.473 345.857Z"/>
	<path fill="#FECB41" d="M211.735 353.891C211.987 356.294 211.78 358.807 211.586 361.212C210.313 360.947 209.409 358.591 208.349 357.61L211.735 353.891Z"/>
	<path fill="#EDAB4D" d="M207.868 358.084L208.349 357.61C209.409 358.591 210.313 360.947 211.586 361.212C211.569 364.349 211.775 367.543 211.599 370.67C209.836 368.388 207.841 365.383 207.192 362.528C206.773 360.687 206.89 359.691 207.868 358.084Z"/>
	<path fill="#06A4BB" d="M215.473 345.857C216.521 346.036 217.75 347.745 218.364 348.614C219.162 349.743 219.949 350.964 220.316 352.309C217.885 352.262 214.5 351.797 212.295 352.888C212.059 353.232 211.859 353.489 211.735 353.891L208.349 357.61L207.868 358.084L206.864 357.385C208.643 353.097 212.425 349.298 215.473 345.857Z"/>
	<path fill="#FE8B87" d="M224.834 369.751C225.967 369.695 227.177 369.76 228.243 370.17C230.18 370.914 231.008 372.461 231.828 374.224C231.56 375.365 231.348 376.794 230.687 377.774C230.632 377.855 230.57 377.932 230.512 378.012C229.728 379.1 228.491 379.64 227.332 380.254C226.249 380.693 225.014 380.309 223.861 380.162C223.028 379.38 222.205 378.591 221.663 377.569C221.002 376.321 220.747 374.834 221.171 373.469C221.768 371.544 223.176 370.658 224.834 369.751Z"/>
	<path fill="#CD2E32" d="M241.923 352.2C243.202 352.155 244.847 351.881 245.839 352.85C246.316 353.316 246.396 353.81 246.509 354.44C250.339 356.148 253.706 360.148 255.256 363.978C255.38 364.285 255.532 364.541 255.725 364.809C254.195 367.587 252.482 370.701 250.537 373.188L247.605 377.599L246.567 378.225C245.006 381.976 242.061 385.561 241.083 389.464C238.236 388.63 230.45 386.522 228.534 384.765C228.797 384.626 229.048 384.513 229.334 384.429C229.8 384.292 230.284 384.174 230.735 383.994C232.868 383.144 234.567 380.399 235.455 378.38C237.904 372.816 238.618 363.025 233.967 358.282C232.467 356.752 227.797 354.098 227.157 352.48Q234.543 352.52 241.923 352.2Z"/>
	<path fill="#06A4BB" d="M247.386 371.925C247.796 371.232 247.749 371.16 248.503 370.921C249.565 371.335 250.053 372.203 250.537 373.188L247.605 377.599L246.567 378.225C247.12 376.214 247.129 373.997 247.386 371.925Z"/>
	<path fill="#5EDDDA" d="M246.509 354.44C250.339 356.148 253.706 360.148 255.256 363.978C255.38 364.285 255.532 364.541 255.725 364.809C254.195 367.587 252.482 370.701 250.537 373.188C250.053 372.203 249.565 371.335 248.503 370.921C247.749 371.16 247.796 371.232 247.386 371.925C247.102 367.7 245.395 358.141 246.509 354.44Z"/>
	<path fill="#06A4BB" d="M353.498 345.298C361.274 350.618 369.711 351.782 378.419 354.632Q381.618 352.554 384.908 350.624L385.943 351.262C392.405 354.943 405.845 380.405 408.136 381.105L408.344 380.931C408.967 386.271 415.742 389.432 414.795 396.069C413.035 397.894 411.435 399.938 409.585 401.663C405.165 405.382 401.276 409.891 397.306 414.089C386.758 425.243 374.969 436.729 370.094 451.668C369.961 454.727 370.622 466.06 369.334 468.114L368.953 468.282L368.513 468.766C363.818 472.293 357.648 473.861 352.065 475.418C349.91 476.018 347.584 476.541 345.612 477.619C337.151 480.375 295.77 493.944 290.145 491.497C284.481 493.911 278.402 495.66 274.065 500.352C272.599 501.938 270.847 505.104 269.074 506.175C266.564 504.987 263.406 504.784 260.669 504.339C254.595 503.352 234.726 500.939 230.644 498.785C230.576 498.725 230.501 498.672 230.44 498.605C228.82 496.81 224.514 481.341 224.675 478.746C227.366 481.598 231.898 490.469 235.009 491.656C235.162 492.071 235.324 492.482 235.523 492.878C236.487 494.79 239.254 498.052 241.269 498.761C245.406 497.104 256.27 478.557 259.114 473.758C261.49 469.75 265.028 464.575 265.718 459.918C266.657 453.577 255.853 416.097 253.322 407.684C251.928 403.051 250.146 398.511 248.942 393.827C249.838 391.687 250.672 389.104 252.061 387.249C253.874 384.825 256.202 384.61 258.936 384.134C266.974 397.737 277.769 409.7 285.336 423.628C290.336 417.443 296.441 412.018 301.961 406.302C312.594 395.291 323.287 384.083 333.417 372.609C337.23 368.29 341.133 363.46 344.337 358.672C347.293 354.254 349.901 349.203 353.498 345.298Z"/>
	<path fill="#057B90" d="M290.145 491.497C290.199 491.322 290.187 491.339 290.277 491.16C291.282 489.154 293.738 487.171 295.295 485.512C300.377 480.095 305.751 474.844 310.654 469.274Q326.306 451.835 339.45 432.435C341.551 429.267 343.649 426.075 345.546 422.78C347.15 419.992 348.555 416.672 350.575 414.169C351.187 413.41 351.711 413.041 352.631 412.729C351.281 427.416 349.284 449.377 359.185 461.428C361.663 464.443 364.999 467.056 368.513 468.766C363.818 472.293 357.648 473.861 352.065 475.418C349.91 476.018 347.584 476.541 345.612 477.619C337.151 480.375 295.77 493.944 290.145 491.497Z"/>
	<path fill="#06A4BB" d="M384.908 350.624L385.943 351.262C392.405 354.943 405.845 380.405 408.136 381.105L408.344 380.931C408.967 386.271 415.742 389.432 414.795 396.069C413.035 397.894 411.435 399.938 409.585 401.663C405.165 405.382 401.276 409.891 397.306 414.089C386.758 425.243 374.969 436.729 370.094 451.668C369.961 454.727 370.622 466.06 369.334 468.114L368.953 468.282L368.513 468.766C364.999 467.056 361.663 464.443 359.185 461.428C349.284 449.377 351.281 427.416 352.631 412.729C353.589 408.311 354.094 403.745 355.013 399.3C357.682 386.388 362.37 372.777 370.797 362.434C373.102 359.605 375.776 357.138 378.419 354.632Q381.618 352.554 384.908 350.624Z"/>
	<path fill="#FEFEFE" d="M384.908 350.624L385.943 351.262C382.242 353.993 378.464 356.28 375.182 359.575C365.428 369.367 360.053 386.035 358.043 399.466C357.51 403.03 357.113 406.612 356.443 410.154C353.958 422.887 351.777 449.073 359.407 460.296C361.653 463.599 365.302 466.66 368.953 468.282L368.513 468.766C364.999 467.056 361.663 464.443 359.185 461.428C349.284 449.377 351.281 427.416 352.631 412.729C353.589 408.311 354.094 403.745 355.013 399.3C357.682 386.388 362.37 372.777 370.797 362.434C373.102 359.605 375.776 357.138 378.419 354.632Q381.618 352.554 384.908 350.624Z"/>
	<path fill="#057B90" d="M356.443 410.154C356.594 410.112 356.748 410.078 356.897 410.027C357.721 409.749 365.722 402.606 367.433 401.344C371.695 398.201 376.567 395.847 381.24 393.39C381.955 393.014 384.414 391.436 384.985 391.643C384.932 391.764 378.89 398.051 377.831 399.394C369.596 409.846 363.245 423.089 360.025 435.989C364.426 428.879 369.256 422.721 375.145 416.762C377.293 414.589 379.777 412.747 381.828 410.494L382.29 410.553L381.642 411.257L381.946 411.092C375.684 419.4 367.764 439.528 369.315 450.052C369.413 450.721 369.648 451.155 370.094 451.668C369.961 454.727 370.622 466.06 369.334 468.114L368.953 468.282C365.302 466.66 361.653 463.599 359.407 460.296C351.777 449.073 353.958 422.887 356.443 410.154Z"/>
</svg>
